<svg width="24" height="24" viewBox="0 0 24 24" fill="none" xmlns="http://www.w3.org/2000/svg">
<g id="Frame">
<path id="Vector" fill-rule="evenodd" clip-rule="evenodd" d="M5.46983 5.47015C5.61045 5.3297 5.80108 5.25081 5.99983 5.25081C6.19858 5.25081 6.3892 5.3297 6.52983 5.47015L11.9998 10.9402L17.4698 5.47015C17.5385 5.39647 17.6213 5.33736 17.7133 5.29637C17.8053 5.25538 17.9046 5.23334 18.0053 5.23156C18.106 5.22979 18.206 5.24831 18.2994 5.28603C18.3928 5.32375 18.4776 5.3799 18.5489 5.45112C18.6201 5.52233 18.6762 5.60717 18.714 5.70056C18.7517 5.79394 18.7702 5.89397 18.7684 5.99468C18.7666 6.09538 18.7446 6.19469 18.7036 6.28669C18.6626 6.37869 18.6035 6.46149 18.5298 6.53015L13.0598 12.0002L18.5298 17.4702C18.6035 17.5388 18.6626 17.6216 18.7036 17.7136C18.7446 17.8056 18.7666 17.9049 18.7684 18.0056C18.7702 18.1063 18.7517 18.2064 18.714 18.2998C18.6762 18.3931 18.6201 18.478 18.5489 18.5492C18.4776 18.6204 18.3928 18.6766 18.2994 18.7143C18.206 18.752 18.106 18.7705 18.0053 18.7687C17.9046 18.767 17.8053 18.7449 17.7133 18.7039C17.6213 18.6629 17.5385 18.6038 17.4698 18.5302L11.9998 13.0602L6.52983 18.5302C6.38765 18.6626 6.19961 18.7348 6.00531 18.7313C5.811 18.7279 5.62562 18.6492 5.48821 18.5118C5.35079 18.3744 5.27208 18.189 5.26865 17.9947C5.26523 17.8004 5.33735 17.6123 5.46983 17.4702L10.9398 12.0002L5.46983 6.53015C5.32938 6.38953 5.25049 6.1989 5.25049 6.00015C5.25049 5.8014 5.32938 5.61078 5.46983 5.47015Z" fill="black" fill-opacity="0.42"/>
</g>
</svg>
