<svg width="30" height="30" viewBox="0 0 30 30" fill="none" xmlns="http://www.w3.org/2000/svg">
<g id="Frame">
<path id="Vector" d="M5.03613 15.322C4.96712 15.1146 4.96712 14.8904 5.03613 14.683C6.42313 10.51 10.3601 7.5 15.0001 7.5C19.6381 7.5 23.5731 10.507 24.9631 14.678C25.0331 14.885 25.0331 15.109 24.9631 15.317C23.5771 19.49 19.6401 22.5 15.0001 22.5C10.3621 22.5 6.42613 19.493 5.03613 15.322Z" stroke="black" stroke-opacity="0.42" stroke-width="1.5" stroke-linecap="round" stroke-linejoin="round"/>
<path id="Vector_2" d="M18 15C18 15.7956 17.6839 16.5587 17.1213 17.1213C16.5587 17.6839 15.7956 18 15 18C14.2044 18 13.4413 17.6839 12.8787 17.1213C12.3161 16.5587 12 15.7956 12 15C12 14.2044 12.3161 13.4413 12.8787 12.8787C13.4413 12.3161 14.2044 12 15 12C15.7956 12 16.5587 12.3161 17.1213 12.8787C17.6839 13.4413 18 14.2044 18 15Z" stroke="black" stroke-opacity="0.42" stroke-width="1.5" stroke-linecap="round" stroke-linejoin="round"/>
</g>
</svg>
