<svg width="24" height="24" viewBox="0 0 24 24" fill="none" xmlns="http://www.w3.org/2000/svg">
<g id="Opacity">
<g id="Vector">
<path d="M13.0653 10.0725L13.6453 9.92572L13.3527 8.76217L12.7726 8.90891C11.5828 9.21172 10.5004 9.84054 9.64661 10.725C8.7928 11.6095 8.20118 12.7148 7.93794 13.9173L7.81055 14.5035L8.97961 14.7591L9.10697 14.1728C9.32529 13.1896 9.81062 12.2861 10.5092 11.5625C11.2079 10.8388 12.0925 10.3231 13.0653 10.0725Z" fill="black" fill-opacity="0.42"/>
<path d="M15.998 7.94516C15.2542 5.10289 12.6709 3 9.60698 3C5.96383 3 3 5.97248 3 9.62625C3 12.7244 5.13128 15.3324 8.00048 16.0538C8.37125 17.4708 9.19964 18.7247 10.3562 19.6196C11.5127 20.5145 12.9323 20.9999 14.393 21C18.0361 21 21 18.0275 21 14.3739C20.9997 11.3277 18.9151 8.6751 15.998 7.94516ZM4.19651 9.62625C4.19651 6.63412 6.62356 4.2 9.60698 4.2C12.5904 4.2 15.0174 6.63412 15.0174 9.62625C15.0174 12.6184 12.5904 15.0525 9.60698 15.0525C6.62359 15.0525 4.19651 12.618 4.19651 9.62625ZM14.393 19.8C12.1148 19.8 10.0852 18.343 9.31372 16.2453C9.41094 16.2496 9.50868 16.2522 9.60698 16.2522C10.0172 16.2522 10.4265 16.214 10.8297 16.1379L14.48 19.7989C14.4509 19.7994 14.4219 19.8 14.393 19.8ZM15.9458 19.5719L12.1331 15.7483C12.7214 15.5029 13.2713 15.1736 13.7657 14.7706L17.6711 18.6874C17.1538 19.0842 16.5694 19.3838 15.9458 19.5719ZM18.537 17.8584L14.623 13.9334C15.0517 13.4323 15.4034 12.8698 15.6666 12.2646L19.5145 16.1236C19.2981 16.7575 18.9669 17.3457 18.537 17.8584ZM19.7931 14.7057L16.0757 10.9774C16.1678 10.5329 16.2142 10.0801 16.214 9.6261C16.214 9.50291 16.2103 9.38059 16.2037 9.25909C17.256 9.63593 18.1666 10.3295 18.811 11.2451C19.4553 12.1606 19.802 13.2534 19.8036 14.3741C19.8032 14.4853 19.7998 14.5959 19.7931 14.7057Z" fill="black" fill-opacity="0.42"/>
</g>
</g>
</svg>
