<svg width="113" height="158" viewBox="0 0 113 158" fill="none" xmlns="http://www.w3.org/2000/svg">
<g opacity="0.5">
<path d="M27.7842 -64L-85.0001 48.7842" stroke="#00857F" stroke-linejoin="round"/>
<path d="M32.0269 -59.7578L-80.7574 53.0264" stroke="#00857F" stroke-linejoin="round"/>
<path d="M36.2695 -55.5146L-76.5147 57.2696" stroke="#00857F" stroke-linejoin="round"/>
<path d="M40.5122 -51.2725L-72.272 61.5118" stroke="#00857F" stroke-linejoin="round"/>
<path d="M44.7546 -47.0293L-68.0296 65.7549" stroke="#00857F" stroke-linejoin="round"/>
<path d="M48.9973 -42.7871L-63.7869 69.9971" stroke="#00857F" stroke-linejoin="round"/>
<path d="M53.24 -38.5439L-59.5442 74.2403" stroke="#00857F" stroke-linejoin="round"/>
<path d="M57.4827 -34.3018L-55.3016 78.4825" stroke="#00857F" stroke-linejoin="round"/>
<path d="M61.7253 -30.0586L-51.0589 82.7256" stroke="#00857F" stroke-linejoin="round"/>
<path d="M65.968 -25.8164L-46.8162 86.9678" stroke="#00857F" stroke-linejoin="round"/>
<path d="M70.2107 -21.5732L-42.5735 91.211" stroke="#00857F" stroke-linejoin="round"/>
<path d="M74.4531 -17.3311L-38.3311 95.4532" stroke="#00857F" stroke-linejoin="round"/>
<path d="M78.6958 -13.0879L-34.0884 99.6963" stroke="#00857F" stroke-linejoin="round"/>
<path d="M82.9385 -8.8457L-29.8458 103.939" stroke="#00857F" stroke-linejoin="round"/>
<path d="M87.1812 -4.60352L-25.6031 108.181" stroke="#00857F" stroke-linejoin="round"/>
<path d="M91.4238 -0.360352L-21.3604 112.424" stroke="#00857F" stroke-linejoin="round"/>
<path d="M95.6665 3.88184L-17.1177 116.666" stroke="#00857F" stroke-linejoin="round"/>
<path d="M99.9092 8.125L-12.8751 120.909" stroke="#00857F" stroke-linejoin="round"/>
<path d="M104.152 12.3672L-8.63238 125.151" stroke="#00857F" stroke-linejoin="round"/>
<path d="M108.395 16.6104L-4.38971 129.395" stroke="#00857F" stroke-linejoin="round"/>
<path d="M112.637 20.8525L-0.147032 133.637" stroke="#00857F" stroke-linejoin="round"/>
<path d="M116.879 25.0957L4.09516 137.88" stroke="#00857F" stroke-linejoin="round"/>
<path d="M121.122 29.3379L8.33783 142.122" stroke="#00857F" stroke-linejoin="round"/>
<path d="M125.365 33.5811L12.5805 146.365" stroke="#00857F" stroke-linejoin="round"/>
<path d="M129.607 37.8232L16.8232 150.607" stroke="#00857F" stroke-linejoin="round"/>
<path d="M133.85 42.0664L21.0659 154.851" stroke="#00857F" stroke-linejoin="round"/>
<path d="M138.093 46.3086L25.3085 159.093" stroke="#00857F" stroke-linejoin="round"/>
<path d="M142.335 50.5518L29.5512 163.336" stroke="#00857F" stroke-linejoin="round"/>
<path d="M146.578 54.7939L33.7939 167.578" stroke="#00857F" stroke-linejoin="round"/>
<path d="M150.821 59.0361L38.0366 171.82" stroke="#00857F" stroke-linejoin="round"/>
<path d="M155.063 63.2793L42.2792 176.064" stroke="#00857F" stroke-linejoin="round"/>
<path d="M159.306 67.5215L46.5219 180.306" stroke="#00857F" stroke-linejoin="round"/>
<path d="M163.549 71.7646L50.7646 184.549" stroke="#00857F" stroke-linejoin="round"/>
<path d="M167.792 76.0068L55.0073 188.791" stroke="#00857F" stroke-linejoin="round"/>
<path d="M172.034 80.25L59.2499 193.034" stroke="#00857F" stroke-linejoin="round"/>
<path d="M176.276 84.4922L63.4921 197.276" stroke="#00857F" stroke-linejoin="round"/>
<path d="M180.519 88.7354L67.7348 201.52" stroke="#00857F" stroke-linejoin="round"/>
<path d="M184.762 92.9775L71.9775 205.762" stroke="#00857F" stroke-linejoin="round"/>
<path d="M189.004 97.2207L76.2202 210.005" stroke="#00857F" stroke-linejoin="round"/>
<path d="M193.247 101.463L80.4628 214.247" stroke="#00857F" stroke-linejoin="round"/>
<path d="M197.49 105.706L84.7055 218.49" stroke="#00857F" stroke-linejoin="round"/>
<path d="M201.732 109.948L88.9482 222.732" stroke="#00857F" stroke-linejoin="round"/>
<path d="M205.975 114.19L93.1909 226.975" stroke="#00857F" stroke-linejoin="round"/>
<path d="M210.218 118.434L97.4335 231.218" stroke="#00857F" stroke-linejoin="round"/>
<path d="M214.46 122.676L101.676 235.46" stroke="#00857F" stroke-linejoin="round"/>
<path d="M218.703 126.919L105.919 239.703" stroke="#00857F" stroke-linejoin="round"/>
<path d="M222.946 131.161L110.162 243.945" stroke="#00857F" stroke-linejoin="round"/>
</g>
</svg>
