<svg width="696" height="683" viewBox="0 0 696 683" fill="none" xmlns="http://www.w3.org/2000/svg">
<path opacity="0.2" d="M2 0L2.21866 569C2.21866 569 86 569 140 599C194 629 243.601 560.94 243.682 503.288C243.826 400.327 581.999 338.5 581.999 240.5C581.999 161.233 679.999 131.5 690.999 87.5C701.999 43.5 690.999 19.5 678.999 0H2Z" fill="#00857F"/>
<path d="M0 0V638C0 638 85 683 162 683C239 683 229.601 560.94 229.682 503.288C229.826 400.327 556.369 323.5 568 240.5C579 162 666 131.5 677 87.5C688 43.5 667 19.5 655 0H0Z" fill="#00C5BD"/>
<path d="M436.245 -0.00017792C397.273 27.3376 348.431 30.9475 317.692 30.9475C207.54 30.9475 90 177.894 90 268.5C90 358 54 531 32 574C10 617 0 670 0 670C0 -49 0 -0.00017792 0 -0.00017792H436.245Z" fill="#00AFA7"/>
</svg>
