<svg width="207" height="100" viewBox="0 0 207 100" fill="none" xmlns="http://www.w3.org/2000/svg">
<rect opacity="0.01" width="207" height="100" fill="#D8D8D8"/>
<mask id="mask0" mask-type="alpha" maskUnits="userSpaceOnUse" x="0" y="0" width="207" height="100">
<rect width="207" height="100" fill="white"/>
</mask>
<g mask="url(#mask0)">
<path opacity="0.5" fill-rule="evenodd" clip-rule="evenodd" d="M-310.979 -241H-299.784L130.713 -186.347C130.713 -186.347 219.489 -148.869 208.864 -37.5C198.239 73.8688 79.0847 83.1495 21.154 83.1495C-187.206 83.1495 -110.525 166.091 -220.801 232.317C-263.474 257.945 -312 321 -312 321L-310.979 -241Z" fill="#00857F"/>
</g>
<path d="M69.6909 26.7886H73.3726V31.6001C72.7759 31.7948 72.2131 31.9302 71.6841 32.0063C71.1593 32.0868 70.6219 32.127 70.0718 32.127C68.6711 32.127 67.6004 31.7165 66.8599 30.8955C66.1235 30.0703 65.7554 28.8875 65.7554 27.3472C65.7554 25.8491 66.1828 24.6812 67.0376 23.8433C67.8966 23.0054 69.0858 22.5864 70.605 22.5864C71.5571 22.5864 72.4754 22.7769 73.3599 23.1577L72.7061 24.7319C72.029 24.3934 71.3244 24.2241 70.5923 24.2241C69.7417 24.2241 69.0604 24.5098 68.5483 25.0811C68.0363 25.6523 67.7803 26.4204 67.7803 27.3853C67.7803 28.3924 67.9855 29.1626 68.396 29.6958C68.8107 30.2248 69.4116 30.4893 70.1987 30.4893C70.6092 30.4893 71.026 30.4469 71.4492 30.3623V28.4263H69.6909V26.7886ZM75.5879 32V22.7197H77.5557V30.375H81.3198V32H75.5879ZM91.3618 27.3472C91.3618 28.8833 90.981 30.064 90.2192 30.8892C89.4575 31.7144 88.3657 32.127 86.9438 32.127C85.522 32.127 84.4302 31.7144 83.6685 30.8892C82.9067 30.064 82.5259 28.8791 82.5259 27.3345C82.5259 25.7899 82.9067 24.6113 83.6685 23.7988C84.4344 22.9821 85.5304 22.5737 86.9565 22.5737C88.3826 22.5737 89.4723 22.9842 90.2256 23.8052C90.9831 24.6261 91.3618 25.8068 91.3618 27.3472ZM84.5889 27.3472C84.5889 28.384 84.7856 29.1647 85.1792 29.6895C85.5728 30.2142 86.161 30.4766 86.9438 30.4766C88.5138 30.4766 89.2988 29.4334 89.2988 27.3472C89.2988 25.2567 88.5181 24.2114 86.9565 24.2114C86.1737 24.2114 85.5833 24.4759 85.1855 25.0049C84.7878 25.5296 84.5889 26.3104 84.5889 27.3472ZM93.2852 22.7197H96.1733C97.4894 22.7197 98.4437 22.908 99.0361 23.2847C99.6328 23.6571 99.9312 24.2516 99.9312 25.0684C99.9312 25.6227 99.8 26.0776 99.5376 26.4331C99.2795 26.7886 98.9346 27.0023 98.5029 27.0742V27.1377C99.0911 27.2689 99.5143 27.5143 99.7725 27.874C100.035 28.2337 100.166 28.7119 100.166 29.3086C100.166 30.1549 99.8592 30.8151 99.2456 31.2891C98.6362 31.763 97.8068 32 96.7573 32H93.2852V22.7197ZM95.2529 26.395H96.3955C96.9287 26.395 97.3138 26.3125 97.5508 26.1475C97.792 25.9824 97.9126 25.7095 97.9126 25.3286C97.9126 24.9731 97.7814 24.7192 97.519 24.5669C97.2609 24.4103 96.8504 24.332 96.2876 24.332H95.2529V26.395ZM95.2529 27.9565V30.375H96.5352C97.0768 30.375 97.4767 30.2713 97.7349 30.064C97.993 29.8566 98.1221 29.5392 98.1221 29.1118C98.1221 28.3416 97.5719 27.9565 96.4717 27.9565H95.2529ZM107.701 32L107.028 29.791H103.645L102.972 32H100.852L104.127 22.6816H106.533L109.821 32H107.701ZM106.558 28.1406C105.936 26.139 105.585 25.007 105.504 24.7446C105.428 24.4823 105.373 24.2749 105.339 24.1226C105.2 24.6642 104.8 26.0036 104.14 28.1406H106.558ZM110.995 32V22.7197H112.963V30.375H116.727V32H110.995ZM70.0972 43L67.8628 35.7192H67.8057C67.8861 37.2004 67.9263 38.1885 67.9263 38.6836V43H66.168V33.7197H68.8467L71.043 40.8164H71.0811L73.4106 33.7197H76.0894V43H74.2549V38.6074C74.2549 38.4001 74.257 38.161 74.2612 37.8901C74.2697 37.6193 74.2993 36.8999 74.3501 35.7319H74.293L71.8999 43H70.0972ZM84.1128 43L83.4399 40.791H80.0566L79.3838 43H77.2637L80.5391 33.6816H82.9448L86.2329 43H84.1128ZM82.9702 39.1406C82.3481 37.139 81.9969 36.007 81.9165 35.7446C81.8403 35.4823 81.7853 35.2749 81.7515 35.1226C81.6118 35.6642 81.2119 37.0036 80.5518 39.1406H82.9702ZM95.6401 43H93.1392L89.1021 35.9795H89.0449C89.1253 37.2194 89.1655 38.1038 89.1655 38.6328V43H87.4072V33.7197H89.8892L93.9199 40.6704H93.9644C93.9009 39.4644 93.8691 38.6117 93.8691 38.1123V33.7197H95.6401V43ZM101.505 37.7886H105.187V42.6001C104.59 42.7948 104.028 42.9302 103.499 43.0063C102.974 43.0868 102.436 43.127 101.886 43.127C100.486 43.127 99.4149 42.7165 98.6743 41.8955C97.938 41.0703 97.5698 39.8875 97.5698 38.3472C97.5698 36.8491 97.9972 35.6812 98.8521 34.8433C99.7111 34.0054 100.9 33.5864 102.419 33.5864C103.372 33.5864 104.29 33.7769 105.174 34.1577L104.521 35.7319C103.843 35.3934 103.139 35.2241 102.407 35.2241C101.556 35.2241 100.875 35.5098 100.363 36.0811C99.8507 36.6523 99.5947 37.4204 99.5947 38.3853C99.5947 39.3924 99.8 40.1626 100.21 40.6958C100.625 41.2248 101.226 41.4893 102.013 41.4893C102.424 41.4893 102.84 41.4469 103.264 41.3623V39.4263H101.505V37.7886ZM109.37 37.8394H110.005C110.627 37.8394 111.086 37.7357 111.382 37.5283C111.679 37.321 111.827 36.9951 111.827 36.5508C111.827 36.1107 111.674 35.7975 111.37 35.6113C111.069 35.4251 110.602 35.332 109.967 35.332H109.37V37.8394ZM109.37 39.439V43H107.402V33.7197H110.106C111.368 33.7197 112.301 33.9504 112.906 34.4116C113.511 34.8687 113.813 35.5648 113.813 36.5C113.813 37.0459 113.663 37.5326 113.363 37.96C113.062 38.3831 112.637 38.7153 112.087 38.9565C113.483 41.0428 114.393 42.3906 114.816 43H112.633L110.417 39.439H109.37ZM124.408 38.3472C124.408 39.8833 124.027 41.064 123.265 41.8892C122.503 42.7144 121.412 43.127 119.99 43.127C118.568 43.127 117.476 42.7144 116.714 41.8892C115.953 41.064 115.572 39.8791 115.572 38.3345C115.572 36.7899 115.953 35.6113 116.714 34.7988C117.48 33.9821 118.576 33.5737 120.002 33.5737C121.429 33.5737 122.518 33.9842 123.271 34.8052C124.029 35.6261 124.408 36.8068 124.408 38.3472ZM117.635 38.3472C117.635 39.384 117.832 40.1647 118.225 40.6895C118.619 41.2142 119.207 41.4766 119.99 41.4766C121.56 41.4766 122.345 40.4334 122.345 38.3472C122.345 36.2567 121.564 35.2114 120.002 35.2114C119.22 35.2114 118.629 35.4759 118.231 36.0049C117.834 36.5296 117.635 37.3104 117.635 38.3472ZM131.625 33.7197H133.612L130.457 43H128.312L125.163 33.7197H127.15L128.896 39.2422C128.993 39.568 129.092 39.9489 129.194 40.3848C129.3 40.8164 129.365 41.1169 129.391 41.2861C129.437 40.8968 129.596 40.2155 129.867 39.2422L131.625 33.7197ZM140.131 43H134.786V33.7197H140.131V35.332H136.754V37.3696H139.896V38.9819H136.754V41.375H140.131V43ZM75.207 54H72.9663L71.7095 49.125C71.6629 48.9515 71.5825 48.5939 71.4683 48.0522C71.3582 47.5063 71.2948 47.1403 71.2778 46.9541C71.2524 47.1826 71.189 47.5508 71.0874 48.0586C70.9858 48.5622 70.9076 48.9219 70.8525 49.1377L69.6021 54H67.3677L65 44.7197H66.936L68.123 49.7852C68.3304 50.7204 68.4806 51.5308 68.5737 52.2163C68.5991 51.9751 68.6562 51.6027 68.7451 51.0991C68.8382 50.5913 68.925 50.1978 69.0054 49.9185L70.3574 44.7197H72.2173L73.5693 49.9185C73.6286 50.1512 73.7026 50.5067 73.7915 50.9849C73.8804 51.4631 73.9481 51.8735 73.9946 52.2163C74.0369 51.8862 74.1047 51.4757 74.1978 50.9849C74.2909 50.4897 74.3755 50.0898 74.4517 49.7852L75.6323 44.7197H77.5684L75.207 54ZM84.4175 54L83.7446 51.791H80.3613L79.6885 54H77.5684L80.8438 44.6816H83.2495L86.5376 54H84.4175ZM83.2749 50.1406C82.6528 48.139 82.3016 47.007 82.2212 46.7446C82.145 46.4823 82.09 46.2749 82.0562 46.1226C81.9165 46.6642 81.5166 48.0036 80.8564 50.1406H83.2749ZM91.292 54H89.3242V46.3574H86.8042V44.7197H93.812V46.3574H91.292V54ZM99.1821 46.2241C98.4416 46.2241 97.8682 46.5034 97.4619 47.062C97.0557 47.6164 96.8525 48.3908 96.8525 49.3853C96.8525 51.4546 97.6291 52.4893 99.1821 52.4893C99.8338 52.4893 100.623 52.3263 101.55 52.0005V53.6509C100.788 53.9683 99.9375 54.127 98.998 54.127C97.6481 54.127 96.6156 53.7186 95.9004 52.9019C95.1852 52.0809 94.8276 50.9045 94.8276 49.3726C94.8276 48.4077 95.0033 47.5635 95.3545 46.8398C95.7057 46.112 96.2093 45.5555 96.8652 45.1704C97.5254 44.7811 98.2977 44.5864 99.1821 44.5864C100.083 44.5864 100.989 44.8044 101.899 45.2402L101.264 46.8398C100.917 46.6748 100.568 46.5309 100.217 46.4082C99.8656 46.2855 99.5207 46.2241 99.1821 46.2241ZM111.135 54H109.173V49.9946H105.498V54H103.53V44.7197H105.498V48.3569H109.173V44.7197H111.135V54Z" fill="white"/>
<circle cx="38.15" cy="60.65" r="2.75" fill="white"/>
<circle cx="38.15" cy="19.95" r="4.95" fill="white"/>
<circle cx="26.6" cy="27" r="4.4" fill="white"/>
<circle cx="23.85" cy="39.75" r="3.85" fill="white"/>
<circle cx="31" cy="51.3" r="3.3" fill="white"/>
<circle cx="46.4" cy="51.3" r="3.3" fill="white"/>
<circle cx="49.7" cy="27" r="4.4" fill="white"/>
<circle cx="52.45" cy="39.75" r="3.85" fill="white"/>
</svg>
