<svg width="50" height="50" viewBox="0 0 50 50" fill="none" xmlns="http://www.w3.org/2000/svg">
<path d="M25.0007 27.1661C24.5292 27.1661 24.0771 26.9788 23.7437 26.6454C23.4104 26.3121 23.2231 25.8599 23.2231 25.3885V17.3894C23.2231 16.9179 23.4104 16.4658 23.7437 16.1324C24.0771 15.7991 24.5292 15.6118 25.0007 15.6118C25.4721 15.6118 25.9242 15.7991 26.2576 16.1324C26.591 16.4658 26.7782 16.9179 26.7782 17.3894V25.3885C26.7782 25.8599 26.591 26.3121 26.2576 26.6454C25.9242 26.9788 25.4721 27.1661 25.0007 27.1661ZM25.0007 29.3881C24.4114 29.3881 23.8462 29.6222 23.4295 30.0389C23.0128 30.4556 22.7787 31.0207 22.7787 31.61C22.7787 32.1994 23.0128 32.7645 23.4295 33.1812C23.8462 33.5979 24.4114 33.832 25.0007 33.832C25.59 33.832 26.1551 33.5979 26.5718 33.1812C26.9885 32.7645 27.2226 32.1994 27.2226 31.61C27.2226 31.0207 26.9885 30.4556 26.5718 30.0389C26.1551 29.6222 25.59 29.3881 25.0007 29.3881ZM40.1048 35.7678C40.6655 34.8404 40.9736 33.7823 40.9982 32.6989C41.0229 31.6154 40.7632 30.5444 40.2452 29.5925L30.3334 11.7278C29.2562 9.71022 27.2635 8.50146 25.0007 8.50146C22.7467 8.50146 20.7576 9.70311 19.6804 11.7153L9.74189 29.6192C9.23061 30.5691 8.97626 31.6361 9.004 32.7145C9.03175 33.7929 9.34064 34.8454 9.9001 35.7678C10.4308 36.668 11.1874 37.4139 12.095 37.9318C13.0026 38.4497 14.0297 38.7215 15.0746 38.7204H34.9285C37.0598 38.7204 38.9956 37.6165 40.1048 35.7678ZM27.212 13.4254L37.122 31.2901C37.5717 32.1309 37.5451 33.121 37.0562 33.9369C36.587 34.7155 35.8119 35.1634 34.9285 35.1634H15.0746C14.1894 35.1634 13.4162 34.7155 12.9469 33.9369C12.7076 33.5446 12.5742 33.0969 12.5599 32.6376C12.5456 32.1783 12.6507 31.7232 12.8651 31.3167L22.8071 13.3987C23.2551 12.5615 24.0763 12.0566 25.0024 12.0566C25.9286 12.0566 26.748 12.5579 27.212 13.4254Z" fill="#003C39" fill-opacity="0.15"/>
</svg>
