<svg width="30" height="30" viewBox="0 0 30 30" fill="none" xmlns="http://www.w3.org/2000/svg">
<rect opacity="0.2" x="1" y="1" width="28" height="28" rx="14" stroke="#00857F" stroke-width="2"/>
<path d="M18.3008 20.6035L18.0859 21.4824C17.4414 21.7363 16.9271 21.9284 16.543 22.0586C16.1589 22.1953 15.7129 22.2637 15.2051 22.2637C14.4238 22.2637 13.8151 22.0749 13.3789 21.6973C12.9492 21.3132 12.7344 20.8281 12.7344 20.2422C12.7344 20.0143 12.7507 19.7832 12.7832 19.5488C12.8158 19.3079 12.8678 19.0378 12.9395 18.7383L13.7402 15.8867C13.8118 15.6133 13.8704 15.3561 13.916 15.1152C13.9681 14.8678 13.9941 14.6432 13.9941 14.4414C13.9941 14.0768 13.9193 13.8229 13.7695 13.6797C13.6198 13.5365 13.3333 13.4648 12.9102 13.4648C12.7018 13.4648 12.487 13.4974 12.2656 13.5625C12.0508 13.6276 11.8652 13.6895 11.709 13.748L11.9238 12.8691C12.4512 12.6543 12.9557 12.472 13.4375 12.3223C13.9193 12.166 14.375 12.0879 14.8047 12.0879C15.5794 12.0879 16.1751 12.2767 16.5918 12.6543C17.015 13.0254 17.2266 13.5104 17.2266 14.1094C17.2266 14.2331 17.2103 14.4512 17.1777 14.7637C17.1517 15.0762 17.0996 15.3626 17.0215 15.623L16.2207 18.4648C16.1556 18.6927 16.097 18.9531 16.0449 19.2461C15.9928 19.5391 15.9668 19.7604 15.9668 19.9102C15.9668 20.2878 16.0514 20.5449 16.2207 20.6816C16.39 20.8184 16.6829 20.8867 17.0996 20.8867C17.2949 20.8867 17.5163 20.8542 17.7637 20.7891C18.0111 20.7174 18.1901 20.6556 18.3008 20.6035ZM18.5059 8.67969C18.5059 9.17448 18.3171 9.59766 17.9395 9.94922C17.5684 10.2943 17.1191 10.4668 16.5918 10.4668C16.0645 10.4668 15.612 10.2943 15.2344 9.94922C14.8568 9.59766 14.668 9.17448 14.668 8.67969C14.668 8.1849 14.8568 7.76172 15.2344 7.41016C15.612 7.05859 16.0645 6.88281 16.5918 6.88281C17.1191 6.88281 17.5684 7.05859 17.9395 7.41016C18.3171 7.76172 18.5059 8.1849 18.5059 8.67969Z" fill="#00857F"/>
</svg>
