<svg width="32" height="32" viewBox="0 0 32 32" xmlns="http://www.w3.org/2000/svg">
<path fill-rule="evenodd" clip-rule="evenodd" d="M6 3C4.34315 3 3 4.34315 3 6V26C3 27.6569 4.34314 29 6 29H26C27.6569 29 29 27.6569 29 26V12.3137C29 11.5882 28.4118 11 27.6863 11H25V6C25 4.34315 23.6569 3 22 3H6ZM27 26C27 26.5523 26.5523 27 26 27C25.4477 27 25 26.5523 25 26V16V13H27V26ZM23 16V12V6C23 5.44772 22.5523 5 22 5H6C5.44771 5 5 5.44772 5 6V26C5 26.5523 5.44772 27 6 27H23.1707C23.0602 26.6872 23 26.3506 23 26V16ZM8 7C7.44772 7 7 7.44772 7 8V12C7 12.5523 7.44772 13 8 13H12C12.5523 13 13 12.5523 13 12V8C13 7.44772 12.5523 7 12 7H8ZM9 11V9H11V11H9ZM8 15C7.44772 15 7 15.4477 7 16C7 16.5523 7.44772 17 8 17H20C20.5523 17 21 16.5523 21 16C21 15.4477 20.5523 15 20 15H8ZM7 20C7 19.4477 7.44772 19 8 19H20C20.5523 19 21 19.4477 21 20C21 20.5523 20.5523 21 20 21H8C7.44772 21 7 20.5523 7 20ZM8 23C7.44772 23 7 23.4477 7 24C7 24.5523 7.44772 25 8 25H20C20.5523 25 21 24.5523 21 24C21 23.4477 20.5523 23 20 23H8Z" />
</svg>
