<svg width="160" height="160" viewBox="0 0 160 160" fill="none" xmlns="http://www.w3.org/2000/svg">
<path fill-rule="evenodd" clip-rule="evenodd" d="M51.0006 17H115C120.523 17 125 21.4772 125 27V99C125 100.105 124.105 101 123 101C121.895 101 121 100.105 121 99V27C121 23.6863 118.314 21 115 21H53.0001V43.0001C53.0001 44.1046 52.1046 45.0001 51.0001 45.0001H29V123C29 126.314 31.6863 129 35 129H91C92.1046 129 93 129.895 93 131C93 132.105 92.1046 133 91 133H35C29.4772 133 25 128.523 25 123V43.0006C25 43.0005 25 43.0005 25 43.0004V43C25 42.7004 25.0672 42.4077 25.1933 42.1422C25.2341 42.0563 25.2811 41.973 25.3343 41.8929C25.4072 41.7833 25.4913 41.6803 25.5858 41.5858L49.5858 17.5858C49.6803 17.4913 49.7833 17.4072 49.8929 17.3343C49.973 17.2811 50.0563 17.2341 50.1422 17.1933C50.4077 17.0672 50.7004 17 51 17H51.0004C51.0005 17 51.0005 17 51.0006 17ZM49.0001 41.0001H31.8285L49.0001 23.8285V41.0001Z" fill="#D6D6D6"/>
<path fill-rule="evenodd" clip-rule="evenodd" d="M55.0417 63.0417C66.7574 51.326 85.7524 51.326 97.4681 63.0417C108.285 73.8583 109.115 90.8829 99.9574 102.65C99.3378 103.447 99.4081 104.58 100.122 105.293L104.539 109.711L101.711 112.539L97.2931 108.121C96.5797 107.408 95.4467 107.338 94.6506 107.957C82.8831 117.115 65.8584 116.285 55.0417 105.468C43.326 93.7524 43.326 74.7574 55.0417 63.0417ZM98.8823 115.367L95.6806 112.166C82.4211 121.416 64.0439 120.127 52.2133 108.297C38.9354 95.0187 38.9354 73.4911 52.2133 60.2133C65.4911 46.9354 87.0187 46.9354 100.297 60.2133C112.127 72.0438 113.416 90.4209 104.166 103.68L107.368 106.882L107.704 106.546C109.08 105.169 111.311 105.169 112.688 106.546L128.581 122.439C132.486 126.344 132.486 132.676 128.581 136.581C124.675 140.486 118.344 140.486 114.438 136.581L98.5454 120.688C97.1693 119.312 97.1693 117.08 98.5454 115.704L98.8823 115.367ZM103.125 116.782L101.711 118.196L117.267 133.752C119.61 136.096 123.409 136.096 125.752 133.752C128.095 131.409 128.095 127.61 125.752 125.267L110.196 109.711L108.782 111.125L103.125 116.782Z" fill="#D6D6D6"/>
<path d="M60.3846 68.3848C51.7931 76.9763 51.7931 90.906 60.3846 99.4975C68.9761 108.089 82.9058 108.089 91.4973 99.4975C97.1436 93.8512 99.0816 85.8986 97.3023 78.6639C96.9618 77.2796 96.4853 75.9224 95.8729 74.6136C95.4048 73.6131 95.8364 72.4226 96.8369 71.9545C97.8373 71.4863 99.0278 71.9179 99.496 72.9184C100.221 74.4673 100.784 76.0725 101.187 77.7086C103.286 86.2458 101.002 95.6494 94.3257 102.326C84.1721 112.48 67.7098 112.48 57.5562 102.326C47.4025 92.1723 47.4025 75.71 57.5562 65.5564C63.8088 59.3037 72.4547 56.9033 80.5384 58.3487C82.5838 58.7144 84.5947 59.3264 86.5232 60.1851C87.5323 60.6343 87.9861 61.8165 87.5368 62.8256C87.0876 63.8347 85.9053 64.2885 84.8963 63.8392C83.2665 63.1136 81.5658 62.5959 79.8343 62.2863C72.9834 61.0613 65.6731 63.0963 60.3846 68.3848ZM90.0038 64.3861C90.7218 63.5468 91.9843 63.4485 92.8237 64.1665C93.3382 64.6067 93.8394 65.07 94.3257 65.5564C94.7531 65.9838 95.1627 66.4226 95.5545 66.8719C96.2804 67.7044 96.1939 68.9678 95.3614 69.6937C94.5289 70.4196 93.2655 70.3332 92.5396 69.5007C92.2076 69.12 91.8602 68.7477 91.4973 68.3848C91.0843 67.9718 90.6593 67.5789 90.2234 67.206C89.3841 66.488 89.2857 65.2255 90.0038 64.3861Z" fill="#D6D6D6"/>
<path d="M59 29C59 27.8954 59.8954 27 61 27H113C114.105 27 115 27.8954 115 29V29C115 30.1046 114.105 31 113 31H61C59.8954 31 59 30.1046 59 29V29Z" fill="#D6D6D6"/>
<path d="M59 37C59 35.8954 59.8954 35 61 35H65C66.1046 35 67 35.8954 67 37V37C67 38.1046 66.1046 39 65 39H61C59.8954 39 59 38.1046 59 37V37Z" fill="#D6D6D6"/>
<path d="M71 37C71 35.8954 71.8954 35 73 35H77C78.1046 35 79 35.8954 79 37V37C79 38.1046 78.1046 39 77 39H73C71.8954 39 71 38.1046 71 37V37Z" fill="#D6D6D6"/>
<path fill-rule="evenodd" clip-rule="evenodd" d="M66.5858 91.5564C65.8047 92.3374 65.8047 93.6037 66.5858 94.3848C67.3668 95.1658 68.6332 95.1658 69.4142 94.3848L76.4854 87.3136L83.5565 94.3848C84.3376 95.1659 85.6039 95.1659 86.385 94.3848C87.166 93.6038 87.166 92.3374 86.385 91.5564L79.3138 84.4852L86.3848 77.4142C87.1658 76.6332 87.1658 75.3668 86.3848 74.5858C85.6037 73.8047 84.3374 73.8047 83.5563 74.5858L76.4854 81.6568L69.4144 74.5858C68.6333 73.8048 67.367 73.8048 66.586 74.5858C65.8049 75.3669 65.8049 76.6332 66.586 77.4143L73.6569 84.4852L66.5858 91.5564Z" fill="#00857F"/>
</svg>
