<svg width="16" height="16" viewBox="0 0 16 16" fill="none" xmlns="http://www.w3.org/2000/svg">
<path d="M13.333 4.6665H7.33301" stroke="white" stroke-width="2" stroke-linecap="round" stroke-linejoin="round"/>
<path d="M9.33301 11.3335H3.33301" stroke="white" stroke-width="2" stroke-linecap="round" stroke-linejoin="round"/>
<path d="M11.333 13.3335C12.4376 13.3335 13.333 12.4381 13.333 11.3335C13.333 10.2289 12.4376 9.3335 11.333 9.3335C10.2284 9.3335 9.33301 10.2289 9.33301 11.3335C9.33301 12.4381 10.2284 13.3335 11.333 13.3335Z" stroke="white" stroke-width="2" stroke-linecap="round" stroke-linejoin="round"/>
<path d="M4.66699 6.6665C5.77156 6.6665 6.66699 5.77107 6.66699 4.6665C6.66699 3.56193 5.77156 2.6665 4.66699 2.6665C3.56242 2.6665 2.66699 3.56193 2.66699 4.6665C2.66699 5.77107 3.56242 6.6665 4.66699 6.6665Z" stroke="white" stroke-width="2" stroke-linecap="round" stroke-linejoin="round"/>
</svg>
