<?xml version="1.0" encoding="UTF-8"?>
<svg width="330px" height="130px" viewBox="0 0 330 130" version="1.1" xmlns="http://www.w3.org/2000/svg" xmlns:xlink="http://www.w3.org/1999/xlink">
    <title>logo-bg</title>
    <defs>
        <rect id="path-1" x="0" y="0" width="330" height="130"></rect>
        <filter x="-2.4%" y="-6.2%" width="104.8%" height="112.3%" filterUnits="objectBoundingBox" id="filter-3">
            <feOffset dx="0" dy="4" in="SourceAlpha" result="shadowOffsetOuter1"></feOffset>
            <feGaussianBlur stdDeviation="6" in="shadowOffsetOuter1" result="shadowBlurOuter1"></feGaussianBlur>
            <feComposite in="shadowBlurOuter1" in2="SourceAlpha" operator="out" result="shadowBlurOuter1"></feComposite>
            <feColorMatrix values="0 0 0 0 0.657070879   0 0 0 0 0.657070879   0 0 0 0 0.657070879  0 0 0 0.179496285 0" type="matrix" in="shadowBlurOuter1"></feColorMatrix>
        </filter>
    </defs>
    <g id="Assets" stroke="none" stroke-width="1" fill="none" fill-rule="evenodd">
        <g id="logo-bg">

            <!-- <g id="Mask" opacity="0">
                <use fill="black" fill-opacity="1" filter="url(#filter-3)" xlink:href="#path-1"></use>
                <rect stroke="#ECECEF" stroke-width="1" stroke-linejoin="square" fill="#F7F9F9" fill-rule="evenodd" x="0.5" y="0.5" width="329" height="129"></rect>
            </g> -->
            <!-- <path d="M-193.424821,-229 L-182.230049,-229 L248.266866,-174.346789 C307.451104,-149.361468 333.501519,-99.7458716 326.418111,-25.5 C315.792998,85.8688073 196.638558,95.1495413 138.707788,95.1495413 C-69.6524861,95.1495413 7.02883432,178.091029 -103.247278,244.317431 C-131.696199,261.402452 -162.095827,290.963308 -194.446161,333 L-193.424821,-229 Z" id="Rectangle-6" fill="#00857F" opacity="0.5" mask="url(#mask-2)"></path> -->
            <g id="Group-44" mask="url(#mask-2)">
                <g transform="translate(135.000000, 26.000000)">
                    <path d="M50.0717773,17.1269531 C50.6219076,17.1269531 51.1604004,17.0878092 51.6872559,17.0095215 C52.2141113,16.9312337 52.7758789,16.7947591 53.3725586,16.6000977 L53.3725586,16.6000977 L53.3725586,11.7885742 L49.690918,11.7885742 L49.690918,13.4262695 L51.4492188,13.4262695 L51.4492188,15.3623047 C51.0260417,15.4469401 50.6092122,15.4892578 50.1987305,15.4892578 C49.4116211,15.4892578 48.8117676,15.2237142 48.3991699,14.692627 C47.9865723,14.1615397 47.7802734,13.3924154 47.7802734,12.3852539 C47.7802734,11.4204102 48.0362956,10.6523438 48.5483398,10.0810547 C49.0603841,9.50976562 49.7416992,9.22412109 50.5922852,9.22412109 C51.3243815,9.22412109 52.0289714,9.39339193 52.7060547,9.73193359 L52.7060547,9.73193359 L53.3598633,8.15771484 C52.4754232,7.77685547 51.5571289,7.58642578 50.6049805,7.58642578 C49.0857747,7.58642578 47.8977051,8.00537109 47.0407715,8.84326172 C46.1838379,9.68115234 45.7553711,10.8491211 45.7553711,12.347168 C45.7553711,13.8875326 46.1245931,15.0692546 46.8630371,15.892334 C47.6014811,16.7154134 48.6710612,17.1269531 50.0717773,17.1269531 Z M61.3134766,17 L61.3134766,15.375 L57.5493164,15.375 L57.5493164,7.71972656 L55.581543,7.71972656 L55.581543,17 L61.3134766,17 Z M66.9311523,17.1269531 C68.3530273,17.1269531 69.4448242,16.7143555 70.206543,15.8891602 C70.9682617,15.0639648 71.3491211,13.8833008 71.3491211,12.347168 C71.3491211,10.8068034 70.9714355,9.62613932 70.2160645,8.80517578 C69.4606934,7.98421224 68.3699544,7.57373047 66.9438477,7.57373047 C65.5177409,7.57373047 64.4227702,7.98103841 63.6589355,8.7956543 C62.8951009,9.61027018 62.5131836,10.7898763 62.5131836,12.3344727 C62.5131836,13.879069 62.894043,15.0639648 63.6557617,15.8891602 C64.4174805,16.7143555 65.5092773,17.1269531 66.9311523,17.1269531 Z M66.9311523,15.4765625 C66.1482747,15.4765625 65.5600586,15.2141927 65.1665039,14.6894531 C64.7729492,14.1647135 64.5761719,13.3839518 64.5761719,12.347168 C64.5761719,11.3103841 64.7750651,10.5285645 65.1728516,10.001709 C65.570638,9.47485352 66.1609701,9.21142578 66.9438477,9.21142578 C68.5053711,9.21142578 69.2861328,10.2566732 69.2861328,12.347168 C69.2861328,14.433431 68.5011393,15.4765625 66.9311523,15.4765625 Z M76.7446289,17 C77.7941081,17 78.6245931,16.7630208 79.236084,16.2890625 C79.8475749,15.8151042 80.1533203,15.1549479 80.1533203,14.3085938 C80.1533203,13.7119141 80.0231934,13.233724 79.7629395,12.8740234 C79.5026855,12.5143229 79.0784505,12.2688802 78.4902344,12.1376953 L78.4902344,12.1376953 L78.4902344,12.0742188 C78.921875,12.0022786 79.2678223,11.7885742 79.5280762,11.4331055 C79.7883301,11.0776367 79.918457,10.6227214 79.918457,10.0683594 C79.918457,9.2516276 79.6211751,8.65600586 79.0266113,8.28149414 C78.4320475,7.90698242 77.4767253,7.71972656 76.1606445,7.71972656 L76.1606445,7.71972656 L73.2724609,7.71972656 L73.2724609,17 L76.7446289,17 Z M76.3828125,11.3950195 L75.2402344,11.3950195 L75.2402344,9.33203125 L76.2749023,9.33203125 C76.8377279,9.33203125 77.2492676,9.40926107 77.5095215,9.5637207 C77.7697754,9.71818034 77.8999023,9.97314453 77.8999023,10.3286133 C77.8999023,10.7094727 77.7803548,10.9824219 77.5412598,11.1474609 C77.3021647,11.3125 76.9160156,11.3950195 76.3828125,11.3950195 L76.3828125,11.3950195 Z M76.5224609,15.375 L75.2402344,15.375 L75.2402344,12.956543 L76.4589844,12.956543 C77.5592448,12.956543 78.109375,13.3416341 78.109375,14.1118164 C78.109375,14.5392253 77.980306,14.8566081 77.722168,15.0639648 C77.4640299,15.2713216 77.0641276,15.375 76.5224609,15.375 L76.5224609,15.375 Z M82.9589844,17 L83.6318359,14.7910156 L87.0151367,14.7910156 L87.6879883,17 L89.8081055,17 L86.5200195,7.68164062 L84.1142578,7.68164062 L80.8388672,17 L82.9589844,17 Z M86.5454102,13.140625 L84.1269531,13.140625 C84.7871094,11.0035807 85.1870117,9.66422526 85.3266602,9.12255859 C85.3605143,9.27490234 85.4165853,9.48225911 85.494873,9.74462891 C85.5731608,10.0069987 85.9233398,11.1389974 86.5454102,13.140625 L86.5454102,13.140625 Z M96.7080078,17 L96.7080078,15.375 L92.9438477,15.375 L92.9438477,7.71972656 L90.9760742,7.71972656 L90.9760742,17 L96.7080078,17 Z M47.9262695,28 L47.9262695,23.6835938 C47.9262695,23.1884766 47.8860677,22.2003581 47.8056641,20.7192383 L47.8056641,20.7192383 L47.862793,20.7192383 L50.097168,28 L51.8999023,28 L54.2929688,20.7319336 L54.3500977,20.7319336 C54.2993164,21.8999023 54.270752,22.6193034 54.2644043,22.8901367 C54.2580566,23.1609701 54.2548828,23.4000651 54.2548828,23.6074219 L54.2548828,23.6074219 L54.2548828,28 L56.0893555,28 L56.0893555,18.7197266 L53.4106445,18.7197266 L51.0810547,25.8164062 L51.0429688,25.8164062 L48.8466797,18.7197266 L46.1679688,18.7197266 L46.1679688,28 L47.9262695,28 Z M59.3774414,28 L60.050293,25.7910156 L63.4335938,25.7910156 L64.1064453,28 L66.2265625,28 L62.9384766,18.6816406 L60.5327148,18.6816406 L57.2573242,28 L59.3774414,28 Z M62.9638672,24.140625 L60.5454102,24.140625 C61.2055664,22.0035807 61.6054688,20.6642253 61.7451172,20.1225586 C61.7789714,20.2749023 61.8350423,20.4822591 61.9133301,20.7446289 C61.9916178,21.0069987 62.3417969,22.1389974 62.9638672,24.140625 L62.9638672,24.140625 Z M69.152832,28 L69.152832,23.6328125 C69.152832,23.1038411 69.1126302,22.219401 69.0322266,20.9794922 L69.0322266,20.9794922 L69.0893555,20.9794922 L73.1264648,28 L75.6274414,28 L75.6274414,18.7197266 L73.8564453,18.7197266 L73.8564453,23.1123047 C73.8564453,23.6116536 73.8881836,24.4643555 73.9516602,25.6704102 L73.9516602,25.6704102 L73.9072266,25.6704102 L69.8764648,18.7197266 L67.3945312,18.7197266 L67.3945312,28 L69.152832,28 Z M81.8671875,28.1269531 C82.4173177,28.1269531 82.9558105,28.0878092 83.482666,28.0095215 C84.0095215,27.9312337 84.5712891,27.7947591 85.1679688,27.6000977 L85.1679688,27.6000977 L85.1679688,22.7885742 L81.4863281,22.7885742 L81.4863281,24.4262695 L83.2446289,24.4262695 L83.2446289,26.3623047 C82.8214518,26.4469401 82.4046224,26.4892578 81.9941406,26.4892578 C81.2070312,26.4892578 80.6071777,26.2237142 80.1945801,25.692627 C79.7819824,25.1615397 79.5756836,24.3924154 79.5756836,23.3852539 C79.5756836,22.4204102 79.8317057,21.6523438 80.34375,21.0810547 C80.8557943,20.5097656 81.5371094,20.2241211 82.3876953,20.2241211 C83.1197917,20.2241211 83.8243815,20.3933919 84.5014648,20.7319336 L84.5014648,20.7319336 L85.1552734,19.1577148 C84.2708333,18.7768555 83.3525391,18.5864258 82.4003906,18.5864258 C80.8811849,18.5864258 79.6931152,19.0053711 78.8361816,19.8432617 C77.979248,20.6811523 77.5507812,21.8491211 77.5507812,23.347168 C77.5507812,24.8875326 77.9200033,26.0692546 78.6584473,26.892334 C79.3968913,27.7154134 80.4664714,28.1269531 81.8671875,28.1269531 Z M89.3447266,28 L89.3447266,24.4389648 L90.3920898,24.4389648 L92.6074219,28 L94.7910156,28 C94.3678385,27.390625 93.4580078,26.042806 92.0615234,23.956543 C92.6116536,23.715332 93.0369466,23.3820801 93.3374023,22.9567871 C93.6378581,22.5314941 93.7880859,22.0458984 93.7880859,21.5 C93.7880859,20.5647786 93.4855143,19.8675944 92.8803711,19.4084473 C92.2752279,18.9493001 91.3421224,18.7197266 90.0810547,18.7197266 L90.0810547,18.7197266 L87.3769531,18.7197266 L87.3769531,28 L89.3447266,28 Z M89.9794922,22.8393555 L89.3447266,22.8393555 L89.3447266,20.3320312 L89.9414062,20.3320312 C90.5761719,20.3320312 91.0448405,20.4251302 91.3474121,20.6113281 C91.6499837,20.797526 91.8012695,21.1106771 91.8012695,21.5507812 C91.8012695,21.9951172 91.6531576,22.3209635 91.3569336,22.5283203 C91.0607096,22.7356771 90.6015625,22.8393555 89.9794922,22.8393555 L89.9794922,22.8393555 Z M99.9643555,28.1269531 C101.38623,28.1269531 102.478027,27.7143555 103.239746,26.8891602 C104.001465,26.0639648 104.382324,24.8833008 104.382324,23.347168 C104.382324,21.8068034 104.004639,20.6261393 103.249268,19.8051758 C102.493896,18.9842122 101.403158,18.5737305 99.9770508,18.5737305 C98.550944,18.5737305 97.4559733,18.9810384 96.6921387,19.7956543 C95.928304,20.6102702 95.5463867,21.7898763 95.5463867,23.3344727 C95.5463867,24.879069 95.9272461,26.0639648 96.6889648,26.8891602 C97.4506836,27.7143555 98.5424805,28.1269531 99.9643555,28.1269531 Z M99.9643555,26.4765625 C99.1814779,26.4765625 98.5932617,26.2141927 98.199707,25.6894531 C97.8061523,25.1647135 97.609375,24.3839518 97.609375,23.347168 C97.609375,22.3103841 97.8082682,21.5285645 98.2060547,21.001709 C98.6038411,20.4748535 99.1941732,20.2114258 99.9770508,20.2114258 C101.538574,20.2114258 102.319336,21.2566732 102.319336,23.347168 C102.319336,25.433431 101.534342,26.4765625 99.9643555,26.4765625 Z M110.431641,28 L113.586426,18.7197266 L111.599609,18.7197266 L109.841309,24.2421875 C109.570475,25.2154948 109.411784,25.8968099 109.365234,26.2861328 C109.339844,26.116862 109.275309,25.8153483 109.171631,25.3815918 C109.067952,24.9478353 108.967448,24.5680339 108.870117,24.2421875 L108.870117,24.2421875 L107.124512,18.7197266 L105.137695,18.7197266 L108.286133,28 L110.431641,28 Z M120.099121,28 L120.099121,26.375 L116.722168,26.375 L116.722168,23.9819336 L119.864258,23.9819336 L119.864258,22.3696289 L116.722168,22.3696289 L116.722168,20.3320312 L120.099121,20.3320312 L120.099121,18.7197266 L114.754395,18.7197266 L114.754395,28 L120.099121,28 Z M49.6020508,39 L50.8525391,34.1376953 C50.9075521,33.921875 50.9858398,33.5611165 51.0874023,33.0554199 C51.1889648,32.5497233 51.2524414,32.1826172 51.277832,31.9541016 C51.2947591,32.1402995 51.3592936,32.5052897 51.4714355,33.0490723 C51.5835775,33.5928548 51.6629232,33.9514974 51.7094727,34.125 L51.7094727,34.125 L52.9663086,39 L55.2070312,39 L57.5683594,29.7197266 L55.6323242,29.7197266 L54.4516602,34.7851562 C54.3754883,35.0898438 54.2908529,35.4886882 54.1977539,35.9816895 C54.1046549,36.4746908 54.0369466,36.8862305 53.9946289,37.2163086 C53.9480794,36.8735352 53.8803711,36.4630534 53.7915039,35.9848633 C53.7026367,35.5066732 53.6285807,35.1512044 53.5693359,34.918457 L53.5693359,34.918457 L52.2172852,29.7197266 L50.3574219,29.7197266 L49.0053711,34.918457 C48.9249674,35.1977539 48.8392741,35.5902507 48.748291,36.0959473 C48.6573079,36.6016439 48.5991211,36.9750977 48.5737305,37.2163086 C48.4806315,36.5307617 48.3304036,35.7203776 48.1230469,34.7851562 L48.1230469,34.7851562 L46.9360352,29.7197266 L45,29.7197266 L47.3676758,39 L49.6020508,39 Z M59.6884766,39 L60.3613281,36.7910156 L63.7446289,36.7910156 L64.4174805,39 L66.5375977,39 L63.2495117,29.6816406 L60.84375,29.6816406 L57.5683594,39 L59.6884766,39 Z M63.2749023,35.140625 L60.8564453,35.140625 C61.5166016,33.0035807 61.9165039,31.6642253 62.0561523,31.1225586 C62.0900065,31.2749023 62.1460775,31.4822591 62.2243652,31.7446289 C62.302653,32.0069987 62.652832,33.1389974 63.2749023,35.140625 L63.2749023,35.140625 Z M71.2856445,39 L71.2856445,31.3574219 L73.8056641,31.3574219 L73.8056641,29.7197266 L66.7978516,29.7197266 L66.7978516,31.3574219 L69.3178711,31.3574219 L69.3178711,39 L71.2856445,39 Z M78.9916992,39.1269531 C79.9311523,39.1269531 80.7817383,38.9682617 81.543457,38.6508789 L81.543457,38.6508789 L81.543457,37.0004883 C80.6166992,37.3263346 79.827474,37.4892578 79.1757812,37.4892578 C77.6227214,37.4892578 76.8461914,36.4545898 76.8461914,34.3852539 C76.8461914,33.3907878 77.0493164,32.6153158 77.4555664,32.0588379 C77.8618164,31.50236 78.4352214,31.2241211 79.1757812,31.2241211 C79.5143229,31.2241211 79.8592122,31.2854818 80.2104492,31.4082031 C80.5616862,31.5309245 80.9108073,31.6748047 81.2578125,31.8398438 L81.2578125,31.8398438 L81.8925781,30.2402344 C80.9827474,29.804362 80.0771484,29.5864258 79.1757812,29.5864258 C78.2913411,29.5864258 77.5201009,29.7800293 76.8620605,30.1672363 C76.2040202,30.5544434 75.6993815,31.1109212 75.3481445,31.8366699 C74.9969076,32.5624186 74.8212891,33.4077148 74.8212891,34.3725586 C74.8212891,35.9044596 75.1788737,37.079834 75.894043,37.8986816 C76.6092122,38.7175293 77.6417643,39.1269531 78.9916992,39.1269531 Z M85.4853516,39 L85.4853516,34.9946289 L89.1606445,34.9946289 L89.1606445,39 L91.1220703,39 L91.1220703,29.7197266 L89.1606445,29.7197266 L89.1606445,33.3569336 L85.4853516,33.3569336 L85.4853516,29.7197266 L83.5175781,29.7197266 L83.5175781,39 L85.4853516,39 Z" id="GLOBALMANGROVEWATCH" fill="#FFFFFF" fill-rule="nonzero"></path>
                    <g id="Group-43" stroke-width="1" fill="none" fill-rule="evenodd">
                        <circle id="Oval" fill="#FFFFFF" cx="18.1500004" cy="45.650001" r="2.75000006"></circle>
                        <circle id="Oval" fill="#FFFFFF" cx="18.1500004" cy="4.95000011" r="4.95000011"></circle>
                        <circle id="Oval" fill="#FFFFFF" cx="6.60000014" cy="12.0000002" r="4.4000001"></circle>
                        <circle id="Oval" fill="#FFFFFF" cx="3.85000008" cy="24.7500005" r="3.85000008"></circle>
                        <circle id="Oval" fill="#FFFFFF" cx="11.0000002" cy="36.3000008" r="3.30000007"></circle>
                        <circle id="Oval" fill="#FFFFFF" cx="26.4000006" cy="36.3000008" r="3.30000007"></circle>
                        <circle id="Oval" fill="#FFFFFF" cx="29.7000006" cy="12.0000002" r="4.4000001"></circle>
                        <circle id="Oval" fill="#FFFFFF" cx="32.4500007" cy="24.7500005" r="3.85000008"></circle>
                    </g>
                </g>
            </g>
        </g>
    </g>
</svg>
