<?xml version="1.0" encoding="UTF-8"?>
<svg width="254px" height="124px" viewBox="0 0 254 124" version="1.1" xmlns="http://www.w3.org/2000/svg" xmlns:xlink="http://www.w3.org/1999/xlink">
    <!-- Generator: Sketch 58 (84663) - https://sketch.com -->
    <title>mangrove-logo</title>
    <desc>Created with Sketch.</desc>
    <g id="Design" stroke="none" stroke-width="1" fill="none" fill-rule="evenodd">
        <g id="Worldwide">
            <g id="mangrove-logo" transform="translate(-0.007486, 0.000000)">
                <path d="M108.78687,95.1495413 C48.4844659,95.1495413 18.2856188,106.194181 4.31654712e-13,123.440895 L0.00748555327,9.9475983e-14 L253.898954,0.00524498536 C233.988024,87.3354023 150.9457,95.1495413 108.78687,95.1495413 Z" id="Combined-Shape" fill="#00A59E"></path>
                <g id="Group-44" transform="translate(50.007486, 32.000000)" fill="#FFFFFF">
                    <path d="M50.8813477,20 L48.3032227,11.5991211 L48.2373047,11.5991211 L48.3221056,13.2817489 C48.3583452,14.0832158 48.3764648,14.6624738 48.3764648,15.0195312 L48.3764648,20 L46.3476562,20 L46.3476562,9.29199219 L49.4384766,9.29199219 L51.9726562,17.4804688 L52.0166016,17.4804688 L54.7045898,9.29199219 L57.7954102,9.29199219 L57.7954102,20 L55.6787109,20 L55.6787109,14.9316406 C55.6787109,14.7521964 55.6807709,14.552155 55.6848907,14.3315129 L55.7166991,13.3283546 C55.7333658,12.9040502 55.7573241,12.3325231 55.7885742,11.6137695 L55.7226562,11.6137695 L52.9614258,20 L50.8813477,20 Z M67.0458984,20 L66.2695312,17.4511719 L62.3657227,17.4511719 L61.5893555,20 L59.1430664,20 L62.9223633,9.24804688 L65.6982422,9.24804688 L69.4921875,20 L67.0458984,20 Z M62.9370117,15.546875 L65.7275391,15.546875 L64.5153809,11.628418 L64.5153809,11.628418 L64.419287,11.2956051 C64.3773925,11.1444335 64.3447267,11.0161138 64.3212891,10.9106445 L64.1224459,11.6273883 C63.8861347,12.4470525 63.4909918,13.7535422 62.9370117,15.546875 Z M80.3393555,20 L77.4536133,20 L72.7954102,11.8994141 L72.7294922,11.8994141 L72.7863092,12.8243484 C72.8412049,13.7792422 72.8686523,14.491434 72.8686523,14.9609375 L72.8686523,20 L70.8398438,20 L70.8398438,9.29199219 L73.7036133,9.29199219 L78.3544922,17.3120117 L78.4057617,17.3120117 L78.3277521,15.6457285 C78.3065163,15.0990569 78.2958984,14.6705995 78.2958984,14.3603516 L78.2958984,9.29199219 L80.3393555,9.29199219 L80.3393555,20 Z M87.0996094,13.9868164 L91.3476562,13.9868164 L91.3476562,19.5385742 C90.6591762,19.7631847 90.0109894,19.9206538 89.4030762,20.0109863 C88.795163,20.1013188 88.1738313,20.1464844 87.5390625,20.1464844 C85.9228435,20.1464844 84.688725,19.6716356 83.8366699,18.7219238 C82.9846149,17.772212 82.5585938,16.4087003 82.5585938,14.6313477 C82.5585938,12.9028234 83.0529736,11.5551806 84.041748,10.5883789 C85.0305225,9.6215772 86.4013584,9.13818359 88.1542969,9.13818359 C89.2529352,9.13818359 90.3124949,9.35790796 91.3330078,9.79736328 L90.5786133,11.6137695 C89.7973594,11.2231426 88.9843792,11.027832 88.1396484,11.027832 C87.1581982,11.027832 86.3720733,11.3574186 85.78125,12.0166016 C85.1904267,12.6757845 84.8950195,13.5620062 84.8950195,14.675293 C84.8950195,15.8374082 85.1330543,16.7248505 85.6091309,17.3376465 C86.0852075,17.9504425 86.7773392,18.2568359 87.6855469,18.2568359 C88.1591821,18.2568359 88.6401343,18.2080083 89.128418,18.1103516 L89.128418,15.8764648 L87.0996094,15.8764648 L87.0996094,13.9868164 Z M96.1669922,14.0454102 L96.8994141,14.0454102 C97.6171911,14.0454102 98.1469709,13.9257824 98.4887695,13.6865234 C98.8305681,13.4472644 99.0014648,13.0712916 99.0014648,12.5585938 C99.0014648,12.0507787 98.826906,11.6894542 98.4777832,11.4746094 C98.1286604,11.2597646 97.5878943,11.1523438 96.8554688,11.1523438 L96.1669922,11.1523438 L96.1669922,14.0454102 Z M96.1669922,15.8911133 L96.1669922,20 L93.8964844,20 L93.8964844,9.29199219 L97.0166016,9.29199219 C98.471687,9.29199219 99.5483364,9.55688212 100.246582,10.0866699 C100.944828,10.6164577 101.293945,11.420893 101.293945,12.5 C101.293945,13.129886 101.120607,13.6901831 100.773926,14.1809082 C100.427244,14.6716333 99.9365266,15.056151 99.3017578,15.3344727 L102.231445,19.6813752 C102.31424,19.8020794 102.387483,19.9082876 102.451172,20 L99.9316406,20 L97.3754883,15.8911133 L96.1669922,15.8911133 Z M113.518066,14.6313477 C113.518066,16.4038175 113.078618,17.7661085 112.199707,18.7182617 C111.320796,19.6704149 110.061043,20.1464844 108.42041,20.1464844 C106.779777,20.1464844 105.520024,19.6704149 104.641113,18.7182617 C103.762203,17.7661085 103.322754,16.3989347 103.322754,14.6166992 C103.322754,12.8344637 103.763423,11.4733934 104.644775,10.5334473 C105.526127,9.59350116 106.789543,9.12353516 108.435059,9.12353516 C110.080575,9.12353516 111.339107,9.59716323 112.210693,10.5444336 C113.08228,11.491704 113.518066,12.853995 113.518066,14.6313477 Z M105.703125,14.6313477 C105.703125,15.8276427 105.930174,16.7285126 106.384277,17.3339844 C106.838381,17.9394562 107.517085,18.2421875 108.42041,18.2421875 C110.231943,18.2421875 111.137695,17.0385863 111.137695,14.6313477 C111.137695,12.2192262 110.236825,11.0131836 108.435059,11.0131836 C107.531734,11.0131836 106.850588,11.3171356 106.391602,11.9250488 C105.932615,12.532962 105.703125,13.4350526 105.703125,14.6313477 Z M121.845703,9.29199219 L124.138184,9.29199219 L120.498047,20 L118.022461,20 L114.389648,9.29199219 L116.682129,9.29199219 L118.696289,15.6640625 C118.808594,16.0400409 118.92456,16.478269 119.044189,16.9787598 L119.189758,17.6150518 C119.22699,17.7890016 119.25293,17.9248042 119.267578,18.0224609 C119.321289,17.5732399 119.504393,16.787115 119.816895,15.6640625 L121.845703,9.29199219 Z M131.652832,20 L125.48584,20 L125.48584,9.29199219 L131.652832,9.29199219 L131.652832,11.1523438 L127.756348,11.1523438 L127.756348,13.503418 L131.381836,13.503418 L131.381836,15.3637695 L127.756348,15.3637695 L127.756348,18.125 L131.652832,18.125 L131.652832,20 Z M52.902832,35 L52.1264648,32.4511719 L48.2226562,32.4511719 L47.4462891,35 L45,35 L48.7792969,24.2480469 L51.5551758,24.2480469 L55.3491211,35 L52.902832,35 Z M48.7939453,30.546875 L51.5844727,30.546875 L50.3723145,26.628418 L50.3723145,26.628418 L50.2762206,26.2956051 C50.2343261,26.1444335 50.2016603,26.0161138 50.1782227,25.9106445 L49.9793795,26.6273883 C49.7430683,27.4470525 49.3479254,28.7535422 48.7939453,30.546875 Z M60.8276367,35 L58.5571289,35 L58.5571289,26.1816406 L55.6494141,26.1816406 L55.6494141,24.2919922 L63.7353516,24.2919922 L63.7353516,26.1816406 L60.8276367,26.1816406 L60.8276367,35 Z M65.3833008,35 L65.3833008,24.2919922 L67.6538086,24.2919922 L67.6538086,33.125 L71.9970703,33.125 L71.9970703,35 L65.3833008,35 Z M80.4125977,35 L79.6362305,32.4511719 L75.7324219,32.4511719 L74.9560547,35 L72.5097656,35 L76.2890625,24.2480469 L79.0649414,24.2480469 L82.8588867,35 L80.4125977,35 Z M76.3037109,30.546875 L79.0942383,30.546875 L77.8820801,26.628418 L77.8820801,26.628418 L77.7859862,26.2956051 C77.7440917,26.1444335 77.7114259,26.0161138 77.6879883,25.9106445 L77.4891451,26.6273883 C77.2528339,27.4470525 76.857691,28.7535422 76.3037109,30.546875 Z M90.5273438,32.0263672 C90.5273438,32.9931689 90.1794468,33.75488 89.4836426,34.3115234 C88.7878383,34.8681668 87.8198304,35.1464844 86.5795898,35.1464844 C85.437006,35.1464844 84.4262739,34.9316428 83.5473633,34.5019531 L83.5473633,32.3925781 C84.2700231,32.7148454 84.8815893,32.9418939 85.3820801,33.0737305 C85.8825709,33.2055671 86.34033,33.2714844 86.7553711,33.2714844 C87.2534205,33.2714844 87.6354967,33.1762705 87.9016113,32.9858398 C88.1677259,32.7954092 88.3007812,32.5122089 88.3007812,32.1362305 C88.3007812,31.9262685 88.2421881,31.7395028 88.125,31.5759277 C88.0078119,31.4123527 87.8356945,31.2548836 87.6086426,31.1035156 L87.4441405,31.0018553 C87.2834963,30.9081054 87.0639539,30.791773 86.7855116,30.652857 L86.2207031,30.378418 C85.566403,30.0707992 85.0756852,29.775392 84.7485352,29.4921875 C84.4213851,29.208983 84.1601572,28.8793964 83.9648438,28.503418 C83.7695303,28.1274395 83.671875,27.6879908 83.671875,27.1850586 C83.671875,26.2377882 83.9929167,25.4931668 84.6350098,24.9511719 C85.2771028,24.409177 86.1645451,24.1381836 87.2973633,24.1381836 C87.8540067,24.1381836 88.3850072,24.2041009 88.8903809,24.3359375 C89.3957545,24.4677741 89.9243136,24.6533191 90.4760742,24.8925781 L89.7436523,26.6577148 C89.1723604,26.4233387 88.699953,26.2597661 88.326416,26.1669922 C87.952879,26.0742183 87.585451,26.027832 87.2241211,26.027832 C86.7944314,26.027832 86.4648449,26.1279287 86.2353516,26.328125 C86.0058582,26.5283213 85.8911133,26.7895492 85.8911133,27.1118164 C85.8911133,27.3120127 85.9374995,27.4865715 86.0302734,27.635498 C86.1230473,27.7844246 86.2707509,27.9284661 86.4733887,28.067627 C86.60234,28.1561839 86.8435028,28.2897239 87.1968808,28.468249 L87.9125977,28.8183594 C88.9135792,29.2968774 89.5996075,29.7766089 89.9707031,30.2575684 C90.3417987,30.7385278 90.5273438,31.3281215 90.5273438,32.0263672 Z" id="MANGROVEATLAS" fill-rule="nonzero"></path>
                    <g id="Group-43">
                        <circle id="Oval" cx="16.5" cy="41.5" r="2.5"></circle>
                        <circle id="Oval" cx="16.5" cy="4.5" r="4.5"></circle>
                        <circle id="Oval" cx="6" cy="10" r="4"></circle>
                        <circle id="Oval" cx="3.5" cy="22.5" r="3.5"></circle>
                        <circle id="Oval" cx="10" cy="33" r="3"></circle>
                        <circle id="Oval" cx="24" cy="33" r="3"></circle>
                        <circle id="Oval" cx="27" cy="10" r="4"></circle>
                        <circle id="Oval" cx="29.5" cy="22.5" r="3.5"></circle>
                    </g>
                </g>
            </g>
        </g>
    </g>
</svg>