<svg width="19" height="19" viewBox="0 0 19 19" fill="none" xmlns="http://www.w3.org/2000/svg">
<g id="Frame 17323">
<path id="Line 10" d="M10.75 7.5C10.75 7.91421 11.0858 8.25 11.5 8.25L18.25 8.25C18.6642 8.25 19 7.91421 19 7.5C19 7.08579 18.6642 6.75 18.25 6.75L12.25 6.75L12.25 0.75C12.25 0.335787 11.9142 4.30664e-07 11.5 2.62077e-07C11.0858 9.34897e-08 10.75 0.335787 10.75 0.75L10.75 7.5ZM16.9697 0.96967L10.9697 6.96967L12.0303 8.03033L18.0303 2.03033L16.9697 0.96967Z" fill="white"/>
<path id="Line 11" d="M8.25 11.5C8.25 11.0858 7.91421 10.75 7.5 10.75L0.749999 10.75C0.335786 10.75 -8.19279e-07 11.0858 -5.8086e-07 11.5C-3.42441e-07 11.9142 0.335786 12.25 0.75 12.25L6.75 12.25L6.75 18.25C6.75 18.6642 7.08579 19 7.5 19C7.91421 19 8.25 18.6642 8.25 18.25L8.25 11.5ZM2.03033 18.0303L8.03033 12.0303L6.96967 10.9697L0.96967 16.9697L2.03033 18.0303Z" fill="white"/>
</g>
</svg>
