<svg width="16" height="16" viewBox="0 0 16 16" fill="none" xmlns="http://www.w3.org/2000/svg">
<g id="icon/fullscreen">
<path id="Union" fill-rule="evenodd" clip-rule="evenodd" d="M10 0C9.44772 0 9 0.447715 9 1C9 1.55228 9.44772 2 10 2H12.5858L9.29289 5.29289C8.90237 5.68342 8.90237 6.31658 9.29289 6.70711C9.68342 7.09763 10.3166 7.09763 10.7071 6.70711L14 3.41421V6C14 6.55229 14.4477 7 15 7C15.5523 7 16 6.55229 16 6V1C16 0.726027 15.8898 0.477788 15.7114 0.297172C15.7092 0.29503 15.7071 0.292898 15.705 0.290776C15.6096 0.195951 15.4999 0.124319 15.3828 0.0758787C15.2649 0.0269855 15.1356 0 15 0H10Z" fill="black" fill-opacity="0.85"/>
<path id="Union_2" fill-rule="evenodd" clip-rule="evenodd" d="M1.00108 16L6 16C6.55228 16 7 15.5523 7 15C7 14.4477 6.55228 14 6 14L3.41421 14L6.70711 10.7071C7.09763 10.3166 7.09763 9.68342 6.70711 9.29289C6.31658 8.90237 5.68342 8.90237 5.29289 9.29289L2 12.5858L2 10C2 9.44772 1.55229 9 1 9C0.447715 9 0 9.44772 0 10V15C0 15.1356 0.0269855 15.2649 0.0758788 15.3828C0.124679 15.5007 0.197017 15.6112 0.292893 15.7071C0.38877 15.803 0.499271 15.8753 0.617216 15.9241C0.732444 15.9719 0.858541 15.9988 0.990768 16C0.993842 16 0.996919 16 1 16H1.00108Z" fill="black" fill-opacity="0.85"/>
</g>
</svg>
