<svg width="19" height="19" viewBox="0 0 19 19" fill="none" xmlns="http://www.w3.org/2000/svg">
<g id="Frame 17323">
<path id="Line 10" d="M18.25 1.5C18.25 1.08579 17.9142 0.75 17.5 0.75L10.75 0.75C10.3358 0.75 10 1.08579 10 1.5C10 1.91421 10.3358 2.25 10.75 2.25L16.75 2.25L16.75 8.25C16.75 8.66421 17.0858 9 17.5 9C17.9142 9 18.25 8.66421 18.25 8.25L18.25 1.5ZM12.0303 8.03033L18.0303 2.03033L16.9697 0.96967L10.9697 6.96967L12.0303 8.03033Z" fill="black"/>
<path id="Line 11" d="M0.75 17.5C0.75 17.9142 1.08579 18.25 1.5 18.25L8.25 18.25C8.66421 18.25 9 17.9142 9 17.5C9 17.0858 8.66421 16.75 8.25 16.75H2.25V10.75C2.25 10.3358 1.91421 10 1.5 10C1.08579 10 0.75 10.3358 0.75 10.75L0.75 17.5ZM6.96967 10.9697L0.96967 16.9697L2.03033 18.0303L8.03033 12.0303L6.96967 10.9697Z" fill="black"/>
</g>
</svg>
