<svg width="16" height="16" viewBox="0 0 16 16" fill="none" xmlns="http://www.w3.org/2000/svg">
<g id="icon/share3">
<path id="Union" fill-rule="evenodd" clip-rule="evenodd" d="M14.9241 4.61722C14.8764 4.50195 14.8063 4.39379 14.7136 4.29945C14.7112 4.29702 14.7088 4.2946 14.7064 4.2922L11.7071 1.29289C11.3166 0.902369 10.6834 0.902369 10.2929 1.29289C9.90237 1.68342 9.90237 2.31658 10.2929 2.70711L11.5858 4H10C7.23858 4 5 6.23858 5 9V10C5 10.5523 5.44772 11 6 11C6.55229 11 7 10.5523 7 10V9C7 7.34315 8.34315 6 10 6H11.5858L10.2929 7.29289C9.90237 7.68342 9.90237 8.31658 10.2929 8.70711C10.6834 9.09763 11.3166 9.09763 11.7071 8.70711L14.7071 5.70711C14.803 5.61123 14.8753 5.50073 14.9241 5.38278C14.973 5.26488 15 5.13559 15 5C15 4.86441 14.973 4.73512 14.9241 4.61722Z" fill="black" fill-opacity="0.85"/>
<path id="Vector 175" d="M14 11.5V12C14 13.1046 13.1046 14 12 14H4C2.89543 14 2 13.1046 2 12V4C2 2.89543 2.89543 2 4 2H4.5" stroke="black" stroke-opacity="0.85" stroke-width="2" stroke-linecap="round" stroke-linejoin="round"/>
</g>
</svg>
