<svg width="17" height="17" viewBox="0 0 17 17" xmlns="http://www.w3.org/2000/svg">
<g id="Frame 230088">
<path id="Shape" fill-rule="evenodd" clip-rule="evenodd" d="M10.0695 5.45628C10.5967 5.98851 11.328 6.31818 12.1364 6.31818C13.743 6.31818 15.0455 5.01574 15.0455 3.40909C15.0455 1.80244 13.743 0.5 12.1364 0.5C10.5297 0.5 9.22727 1.80244 9.22727 3.40909C9.22727 3.6833 9.26521 3.94865 9.33613 4.20017L5.47598 6.45286C4.94878 5.92061 4.21744 5.59091 3.40909 5.59091C1.80244 5.59091 0.5 6.89335 0.5 8.5C0.5 10.1066 1.80244 11.4091 3.40909 11.4091C4.21758 11.4091 4.94905 11.0793 5.47627 10.5468L9.33704 12.7966C9.26554 13.0491 9.22727 13.3155 9.22727 13.5909C9.22727 15.1976 10.5297 16.5 12.1364 16.5C13.743 16.5 15.0455 15.1976 15.0455 13.5909C15.0455 11.9843 13.743 10.6818 12.1364 10.6818C11.3293 10.6818 10.5989 11.0105 10.0719 11.5413L6.20946 9.29061C6.28029 9.03923 6.31818 8.77404 6.31818 8.5C6.31818 8.22582 6.28025 7.9605 6.20935 7.709L10.0695 5.45628ZM12.1364 1.95455C11.333 1.95455 10.6818 2.60577 10.6818 3.40909C10.6818 3.66146 10.7461 3.89883 10.8592 4.1057C10.8667 4.1171 10.874 4.12877 10.8809 4.14071C10.8878 4.15257 10.8944 4.16453 10.9006 4.1766C11.1573 4.58908 11.6148 4.86364 12.1364 4.86364C12.9397 4.86364 13.5909 4.21241 13.5909 3.40909C13.5909 2.60577 12.9397 1.95455 12.1364 1.95455ZM4.64558 7.7336C4.65159 7.7453 4.65795 7.7569 4.66466 7.76839C4.67141 7.77996 4.67843 7.79128 4.68571 7.80234C4.79914 8.00946 4.86364 8.2472 4.86364 8.5C4.86364 8.75283 4.79913 8.9906 4.68567 9.19774C4.67832 9.2089 4.67123 9.22033 4.66442 9.23202C4.65782 9.24336 4.65155 9.2548 4.64562 9.26634C4.38904 9.67947 3.93119 9.95455 3.40909 9.95455C2.60577 9.95455 1.95455 9.30332 1.95455 8.5C1.95455 7.69668 2.60577 7.04545 3.40909 7.04545C3.93116 7.04545 4.38899 7.3205 4.64558 7.7336ZM10.6818 13.5909C10.6818 13.3545 10.7382 13.1314 10.8382 12.934C10.8563 12.9104 10.8731 12.8853 10.8884 12.8589C10.9032 12.8336 10.9162 12.8078 10.9276 12.7816C11.1886 12.3925 11.6326 12.1364 12.1364 12.1364C12.9397 12.1364 13.5909 12.7876 13.5909 13.5909C13.5909 14.3942 12.9397 15.0455 12.1364 15.0455C11.333 15.0455 10.6818 14.3942 10.6818 13.5909Z" />
</g>
</svg>
