<?xml version="1.0" encoding="UTF-8"?>
<svg width="14px" height="14px" viewBox="0 0 14 14" version="1.1" xmlns="http://www.w3.org/2000/svg" xmlns:xlink="http://www.w3.org/1999/xlink">
    <!-- Generator: sketchtool 57.1 (101010) - https://sketch.com -->
    <title>A0E5356A-94D7-4FDD-953C-1CFBA404F4B9</title>
    <desc>Created with sketchtool.</desc>
    <g id="Design" stroke="none" strokeWidth="1" fill="none" fill-rule="evenodd" opacity="0.5">
        <g id="Worldwide" transform="translate(-412.000000, -982.000000)" fill="#00857F">
            <g id="Group-25" transform="translate(50.000000, 666.000000)">
                <g id="Group" transform="translate(0.000000, 297.000000)">
                    <g id="Group-9" transform="translate(361.000000, 16.000000)">
                        <g id="Group-7" transform="translate(0.000000, 3.000000)">
                            <path d="M8,0 C11.8659932,0 15,3.13400675 15,7 C15,10.8659932 11.8659932,14 8,14 C4.13400675,14 1,10.8659932 1,7 C1,3.13400675 4.13400675,0 8,0 Z M9,6 L6,6 L6,7 L7,7 L7,10 L6,10 L6,11 L10,11 L10,10 L8.999,10 L9,6 Z M9,3 L7,3 L7,5 L9,5 L9,3 Z" id="info"></path>
                        </g>
                    </g>
                </g>
            </g>
        </g>
    </g>
</svg>