<svg width="8" height="17" viewBox="0 0 8 17" fill="none" xmlns="http://www.w3.org/2000/svg">
<path d="M0.760986 -41.2393L-55.8076 15.3293" stroke="#00857F" stroke-linejoin="round"/>
<path d="M2.88232 -39.1182L-53.6862 17.4504" stroke="#00857F" stroke-linejoin="round"/>
<path d="M5.00366 -36.9961L-51.5649 19.5725" stroke="#00857F" stroke-linejoin="round"/>
<path d="M7.125 -34.875L-49.4435 21.6935" stroke="#00857F" stroke-linejoin="round"/>
<path d="M9.24609 -32.7539L-47.3225 23.8146" stroke="#00857F" stroke-linejoin="round"/>
<path d="M11.3674 -30.6328L-45.2011 25.9357" stroke="#00857F" stroke-linejoin="round"/>
<path d="M13.4888 -28.5107L-43.0798 28.0578" stroke="#00857F" stroke-linejoin="round"/>
<path d="M15.6101 -26.3896L-40.9584 30.1789" stroke="#00857F" stroke-linejoin="round"/>
<path d="M17.7314 -24.2686L-38.8371 32.3" stroke="#00857F" stroke-linejoin="round"/>
<path d="M19.8528 -22.1475L-36.7158 34.4211" stroke="#00857F" stroke-linejoin="round"/>
<path d="M21.9741 -20.0254L-34.5944 36.5432" stroke="#00857F" stroke-linejoin="round"/>
<path d="M24.0955 -17.9043L-32.4731 38.6642" stroke="#00857F" stroke-linejoin="round"/>
<path d="M26.2168 -15.7832L-30.3517 40.7853" stroke="#00857F" stroke-linejoin="round"/>
<path d="M28.3381 -13.6621L-28.2304 42.9064" stroke="#00857F" stroke-linejoin="round"/>
<path d="M30.4595 -11.541L-26.1091 45.0275" stroke="#00857F" stroke-linejoin="round"/>
<path d="M32.5808 -9.41895L-23.9877 47.1496" stroke="#00857F" stroke-linejoin="round"/>
<path d="M34.7021 -7.29785L-21.8664 49.2707" stroke="#00857F" stroke-linejoin="round"/>
<path d="M36.8235 -5.17676L-19.7451 51.3918" stroke="#00857F" stroke-linejoin="round"/>
<path d="M38.9446 -3.05566L-17.624 53.5129" stroke="#00857F" stroke-linejoin="round"/>
<path d="M41.0659 -0.933594L-15.5026 55.635" stroke="#00857F" stroke-linejoin="round"/>
<path d="M43.1873 1.1875L-13.3813 57.756" stroke="#00857F" stroke-linejoin="round"/>
<path d="M45.3086 3.30859L-11.26 59.8771" stroke="#00857F" stroke-linejoin="round"/>
<path d="M47.4299 5.42969L-9.13861 61.9982" stroke="#00857F" stroke-linejoin="round"/>
<path d="M49.5513 7.55176L-7.01727 64.1203" stroke="#00857F" stroke-linejoin="round"/>
<path d="M51.6726 9.67285L-4.89594 66.2414" stroke="#00857F" stroke-linejoin="round"/>
<path d="M53.7939 11.7939L-2.7746 68.3625" stroke="#00857F" stroke-linejoin="round"/>
<path d="M55.9153 13.915L-0.653261 70.4836" stroke="#00857F" stroke-linejoin="round"/>
<path d="M58.0366 16.0361L1.46808 72.6047" stroke="#00857F" stroke-linejoin="round"/>
</svg>
