<svg width="26" height="26" viewBox="0 0 26 26" fill="none" xmlns="http://www.w3.org/2000/svg">
<path fill-rule="evenodd" clip-rule="evenodd" d="M8.28252 4.40625C7.51914 4.40625 6.9003 5.02509 6.9003 5.78847C6.9003 6.55185 7.51914 7.17069 8.28252 7.17069C9.04589 7.17069 9.66473 6.55185 9.66473 5.78847C9.66473 5.02509 9.04589 4.40625 8.28252 4.40625ZM5.3378 5.78847C5.3378 4.16215 6.65619 2.84375 8.28252 2.84375C9.90884 2.84375 11.2272 4.16215 11.2272 5.78847C11.2272 7.38908 9.95019 8.69143 8.35941 8.7322L6.60122 17.5231C7.27647 17.8259 7.81692 18.3755 8.10768 19.0572L16.9366 18.1743C17.0778 17.4862 17.459 16.8857 17.9888 16.464L17.3264 14.4768C17.1987 14.4937 17.0685 14.5024 16.9362 14.5024C15.3098 14.5024 13.9914 13.184 13.9914 11.5577C13.9914 9.93135 15.3098 8.61296 16.9362 8.61296C18.5625 8.61296 19.8809 9.93135 19.8809 11.5577C19.8809 12.4912 19.4465 13.3233 18.7688 13.8628L19.4312 15.8502C19.5588 15.8333 19.689 15.8246 19.8212 15.8246C21.4475 15.8246 22.7659 17.143 22.7659 18.7693C22.7659 20.3956 21.4475 21.714 19.8212 21.714C18.5329 21.714 17.4378 20.8867 17.0383 19.7344L8.31629 20.6066C8.12328 22.0461 6.8902 23.1563 5.39784 23.1563C3.77152 23.1563 2.45312 21.8379 2.45312 20.2116C2.45312 18.7012 3.59025 17.4564 5.05509 17.2866L6.84103 8.35685C5.94386 7.85223 5.3378 6.89113 5.3378 5.78847ZM5.39784 18.8293C4.63446 18.8293 4.01562 19.4482 4.01562 20.2116C4.01562 20.9749 4.63446 21.5938 5.39784 21.5938C6.16122 21.5938 6.78006 20.9749 6.78006 20.2116C6.78006 19.4482 6.16122 18.8293 5.39784 18.8293ZM18.439 18.7693C18.439 18.0059 19.0578 17.3871 19.8212 17.3871C20.5846 17.3871 21.2034 18.0059 21.2034 18.7693C21.2034 19.5327 20.5846 20.1515 19.8212 20.1515C19.0578 20.1515 18.439 19.5327 18.439 18.7693ZM16.9362 10.1755C16.1728 10.1755 15.5539 10.7943 15.5539 11.5577C15.5539 12.3211 16.1728 12.9399 16.9362 12.9399C17.6995 12.9399 18.3184 12.3211 18.3184 11.5577C18.3184 10.7943 17.6995 10.1755 16.9362 10.1755Z" fill="currentColor"/>
</svg>
