<svg width="32" height="32" viewBox="0 0 32 32" xmlns="http://www.w3.org/2000/svg">
<path fill-rule="evenodd" clip-rule="evenodd" d="M12 9C12 6.79086 13.7909 5 16 5C18.2091 5 20 6.79086 20 9C20 10.8638 18.7252 12.4299 17 12.874V15H25C25.5523 15 26 15.4477 26 16V19.126C27.7252 19.5701 29 21.1362 29 23C29 25.2091 27.2091 27 25 27C22.7909 27 21 25.2091 21 23C21 21.1362 22.2748 19.5701 24 19.126V17H17V19.126C18.7252 19.5701 20 21.1362 20 23C20 25.2091 18.2091 27 16 27C13.7909 27 12 25.2091 12 23C12 21.1362 13.2748 19.5701 15 19.126V17H8V19.126C9.72523 19.5701 11 21.1362 11 23C11 25.2091 9.20914 27 7 27C4.79086 27 3 25.2091 3 23C3 21.1362 4.27477 19.5701 6 19.126V16C6 15.4477 6.44772 15 7 15H15V12.874C13.2748 12.4299 12 10.8638 12 9ZM16 21C14.8954 21 14 21.8954 14 23C14 24.1046 14.8954 25 16 25C17.1046 25 18 24.1046 18 23C18 21.8954 17.1046 21 16 21ZM16 7C14.8954 7 14 7.89543 14 9C14 10.1046 14.8954 11 16 11C17.1046 11 18 10.1046 18 9C18 7.89543 17.1046 7 16 7ZM23 23C23 21.8954 23.8954 21 25 21C26.1046 21 27 21.8954 27 23C27 24.1046 26.1046 25 25 25C23.8954 25 23 24.1046 23 23ZM5 23C5 21.8954 5.89543 21 7 21C8.10457 21 9 21.8954 9 23C9 24.1046 8.10457 25 7 25C5.89543 25 5 24.1046 5 23Z" />
</svg>
