<svg width="26" height="26" viewBox="0 0 26 26" fill="none" xmlns="http://www.w3.org/2000/svg">
<path fill-rule="evenodd" clip-rule="evenodd" d="M9.875 7.53125C9.875 5.80536 11.2741 4.40625 13 4.40625C14.7259 4.40625 16.125 5.80536 16.125 7.53125C16.125 9.25714 14.7259 10.6562 13 10.6562C11.2741 10.6562 9.875 9.25714 9.875 7.53125ZM13.7812 12.2188V10.6562H13H12.2188V12.2188H5.96875C5.53728 12.2188 5.1875 12.5685 5.1875 13V15.4422C3.83967 15.7891 2.84375 17.0126 2.84375 18.4688C2.84375 20.1946 4.24286 21.5938 5.96875 21.5938C7.69464 21.5938 9.09375 20.1946 9.09375 18.4688C9.09375 17.0126 8.09783 15.7891 6.75 15.4422V13.7812H12.2188V15.4422C10.8709 15.7891 9.875 17.0126 9.875 18.4688C9.875 20.1946 11.2741 21.5938 13 21.5938C14.7259 21.5938 16.125 20.1946 16.125 18.4688C16.125 17.0126 15.1291 15.7891 13.7812 15.4422V13.7812H19.25V15.4422C17.9022 15.7891 16.9062 17.0126 16.9062 18.4688C16.9062 20.1946 18.3054 21.5938 20.0312 21.5938C21.7571 21.5938 23.1562 20.1946 23.1562 18.4688C23.1562 17.0126 22.1603 15.7891 20.8125 15.4422V13C20.8125 12.5685 20.4627 12.2188 20.0312 12.2188H13.7812ZM13 16.9062C12.1371 16.9062 11.4375 17.6058 11.4375 18.4688C11.4375 19.3317 12.1371 20.0312 13 20.0312C13.8629 20.0312 14.5625 19.3317 14.5625 18.4688C14.5625 17.6058 13.8629 16.9062 13 16.9062ZM13 5.96875C12.1371 5.96875 11.4375 6.66831 11.4375 7.53125C11.4375 8.39419 12.1371 9.09375 13 9.09375C13.8629 9.09375 14.5625 8.39419 14.5625 7.53125C14.5625 6.66831 13.8629 5.96875 13 5.96875ZM18.4688 18.4688C18.4688 17.6058 19.1683 16.9062 20.0312 16.9062C20.8942 16.9062 21.5938 17.6058 21.5938 18.4688C21.5938 19.3317 20.8942 20.0312 20.0312 20.0312C19.1683 20.0312 18.4688 19.3317 18.4688 18.4688ZM4.40625 18.4688C4.40625 17.6058 5.10581 16.9062 5.96875 16.9062C6.83169 16.9062 7.53125 17.6058 7.53125 18.4688C7.53125 19.3317 6.83169 20.0312 5.96875 20.0312C5.10581 20.0312 4.40625 19.3317 4.40625 18.4688Z" fill="#00857F"/>
</svg>
