<svg width="26" height="26" viewBox="0 0 26 26" xmlns="http://www.w3.org/2000/svg">
<path fill-rule="evenodd" clip-rule="evenodd" d="M15.0089 5.96875C18.1936 5.96875 20.7753 8.55044 20.7753 11.7351C20.7753 14.9198 18.1936 17.5015 15.0089 17.5015C13.4547 17.5015 12.0442 16.8866 11.0072 15.8869L10.8572 15.7369C9.85742 14.6999 9.24256 13.2893 9.24256 11.7351C9.24256 8.55044 11.8243 5.96875 15.0089 5.96875ZM9.30356 16.3356C8.2881 15.0779 7.68006 13.4775 7.68006 11.7351C7.68006 7.6875 10.9613 4.40625 15.0089 4.40625C19.0566 4.40625 22.3378 7.6875 22.3378 11.7351C22.3378 15.7827 19.0566 19.064 15.0089 19.064C13.2665 19.064 11.6662 18.456 10.4084 17.4405L5.18749 22.6614L4.08264 21.5566L9.30356 16.3356Z" />
</svg>
