<svg width="26" height="26" viewBox="0 0 26 26" xmlns="http://www.w3.org/2000/svg">
<path fill-rule="evenodd" clip-rule="evenodd" d="M13 21.5937C17.7462 21.5937 21.5938 17.7462 21.5938 13C21.5938 8.2538 17.7462 4.40625 13 4.40625C8.2538 4.40625 4.40625 8.2538 4.40625 13C4.40625 17.7462 8.2538 21.5937 13 21.5937ZM23.1562 13C23.1562 18.6091 18.6091 23.1562 13 23.1562C7.39086 23.1562 2.84375 18.6091 2.84375 13C2.84375 7.39086 7.39086 2.84375 13 2.84375C18.6091 2.84375 23.1562 7.39086 23.1562 13Z" />
<path fill-rule="evenodd" clip-rule="evenodd" d="M12.2188 22.375V3.625H13.7812V22.375H12.2188Z" />
<path fill-rule="evenodd" clip-rule="evenodd" d="M12.782 21.6246C12.782 21.6246 12.782 21.6246 12.782 21.6246C12.7825 21.6244 12.7836 21.6241 12.7852 21.6236C12.7902 21.6221 12.8 21.619 12.8144 21.6142C12.8432 21.6046 12.8901 21.5882 12.9526 21.564C13.0776 21.5155 13.2643 21.4358 13.492 21.3165C13.9481 21.0776 14.564 20.6825 15.182 20.0646C16.401 18.8455 17.6875 16.7012 17.6875 12.9998C17.6875 9.29838 16.401 7.15405 15.182 5.93504C14.564 5.31708 13.9481 4.92195 13.492 4.68307C13.2643 4.56377 13.0776 4.4841 12.9526 4.4356C12.8901 4.41138 12.8432 4.39501 12.8144 4.38541C12.8 4.38062 12.7902 4.37753 12.7852 4.376M12.2488 22.5894C12.1306 22.1757 12.3692 21.7445 12.782 21.6246C12.7817 21.6247 12.7815 21.6247 12.7815 21.6247L12.7825 21.6244L12.7837 21.6241L12.7845 21.6239C12.7849 21.6237 12.7854 21.6236 13 22.3748L13.2146 23.126C12.7998 23.2445 12.3674 23.0043 12.2488 22.5894ZM13 3.6248L13.2146 2.87361C12.7998 2.75507 12.3674 2.9953 12.2488 3.41017C12.1306 3.82387 12.3692 4.25501 12.7819 4.37498C12.7819 4.37498 12.7819 4.37498 12.7819 4.37498M13 3.6248C13.2146 2.87361 13.2151 2.87375 13.2157 2.8739L13.2168 2.87424L13.2195 2.87502L13.2264 2.87705L13.2462 2.88304C13.2619 2.8879 13.2828 2.89454 13.3085 2.9031C13.3598 2.9202 13.4304 2.94503 13.5174 2.97879C13.6914 3.04626 13.9321 3.1497 14.217 3.29895C14.7863 3.59718 15.5376 4.08096 16.2868 4.83018C17.8022 6.34555 19.25 8.88871 19.25 12.9998C19.25 17.1109 17.8022 19.654 16.2868 21.1694C15.5376 21.9186 14.7863 22.4024 14.217 22.7006C13.9321 22.8499 13.6914 22.9533 13.5174 23.0208C13.4304 23.0546 13.3598 23.0794 13.3085 23.0965C13.2828 23.1051 13.2619 23.1117 13.2462 23.1166L13.2264 23.1225L13.2195 23.1246L13.2168 23.1254L13.2157 23.1257C13.2151 23.1258 13.2146 23.126 13 22.3748" />
<path fill-rule="evenodd" clip-rule="evenodd" d="M13.218 21.6246C13.6308 21.7445 13.8694 22.1757 13.7512 22.5894C13.6327 23.0043 13.2002 23.2445 12.7854 23.126L13 22.3748C12.7854 23.126 12.7849 23.1258 12.7843 23.1257L12.7832 23.1254L12.7805 23.1246L12.7736 23.1225L12.7538 23.1166C12.7381 23.1117 12.7172 23.1051 12.6915 23.0965C12.6402 23.0794 12.5696 23.0546 12.4826 23.0208C12.3086 22.9533 12.0679 22.8499 11.783 22.7006C11.2137 22.4024 10.4624 21.9186 9.7132 21.1694C8.19783 19.654 6.75 17.1109 6.75 12.9998C6.75 8.88871 8.19783 6.34555 9.7132 4.83018C10.4624 4.08096 11.2137 3.59718 11.783 3.29895C12.0679 3.1497 12.3086 3.04626 12.4826 2.97879C12.5696 2.94503 12.6402 2.9202 12.6915 2.9031C12.7172 2.89454 12.7381 2.8879 12.7538 2.88304L12.7736 2.87705L12.7805 2.87502L12.7832 2.87424L12.7843 2.8739C12.7849 2.87375 12.7854 2.87361 13 3.6248L12.7854 2.87361C13.2002 2.75507 13.6327 2.9953 13.7512 3.41017C13.8694 3.82387 13.6308 4.25501 13.2181 4.37498C13.2176 4.37514 13.2165 4.37548 13.2148 4.376C13.2098 4.37753 13.2 4.38062 13.1856 4.38541C13.1569 4.39501 13.1099 4.41138 13.0475 4.4356C12.9224 4.4841 12.7358 4.56377 12.508 4.68307C12.052 4.92195 11.436 5.31708 10.8181 5.93504C9.59904 7.15405 8.3125 9.29838 8.3125 12.9998C8.3125 16.7012 9.59904 18.8455 10.8181 20.0646C11.436 20.6825 12.052 21.0776 12.508 21.3165C12.7358 21.4358 12.9224 21.5155 13.0475 21.564C13.1099 21.5882 13.1569 21.6046 13.1856 21.6142C13.2 21.619 13.2098 21.6221 13.2148 21.6236" />
<path fill-rule="evenodd" clip-rule="evenodd" d="M3.625 12.2188H22.375V13.7812H3.625V12.2188Z" />
</svg>
