<svg width="24" height="24" viewBox="0 0 24 24" xmlns="http://www.w3.org/2000/svg">
<path fill-rule="evenodd" clip-rule="evenodd" d="M20.6629 3.12387C20.8733 3.26265 21 3.4979 21 3.75V18C21 18.3 20.8212 18.5712 20.5454 18.6894L15.2954 20.9394C15.1178 21.0155 14.9176 21.0201 14.7367 20.9522L9.01864 18.808L4.04544 20.9394C3.81372 21.0387 3.5476 21.0149 3.33713 20.8761C3.12666 20.7374 3 20.5021 3 20.25V6C3 5.69998 3.1788 5.42883 3.45456 5.31064L8.70456 3.06064C8.8822 2.98451 9.08238 2.97989 9.26334 3.04776L14.9814 5.19201L19.9546 3.06064C20.1863 2.96133 20.4524 2.98509 20.6629 3.12387ZM4.5 6.49455L8.25 4.88741V17.5055L4.5 19.1126V6.49455ZM14.25 19.1678L9.75 17.4803V4.83225L14.25 6.51975V19.1678ZM15.75 19.1126L19.5 17.5055V4.88741L15.75 6.49455V19.1126Z" />
</svg>
