<svg width="32" height="32" viewBox="0 0 32 32" fill="none" xmlns="http://www.w3.org/2000/svg">
<path fill-rule="evenodd" clip-rule="evenodd" d="M28.513 3.17893C28.817 3.37939 29 3.71918 29 4.08334V24.6667C29 25.1 28.7417 25.4917 28.3434 25.6624L20.7601 28.9124C20.5035 29.0224 20.2143 29.029 19.9529 28.931L11.6936 25.8338L4.51008 28.9124C4.17537 29.0559 3.79098 29.0215 3.48697 28.8211C3.18296 28.6206 3 28.2808 3 27.9167V7.33334C3 6.89997 3.25826 6.50831 3.65659 6.3376L11.2399 3.0876C11.4965 2.97763 11.7857 2.97096 12.0471 3.06898L20.3064 6.16624L27.4899 3.0876C27.8246 2.94415 28.209 2.97846 28.513 3.17893ZM5.16667 8.04768L10.5833 5.72625V23.9523L5.16667 26.2738V8.04768ZM19.25 26.3534L12.75 23.9159V5.64659L19.25 8.08409V26.3534ZM21.4167 26.2738L26.8333 23.9523V5.72625L21.4167 8.04768V26.2738Z" fill="white"/>
</svg>
