<svg width="26" height="26" viewBox="0 0 26 26" fill="none" xmlns="http://www.w3.org/2000/svg">
<path fill-rule="evenodd" clip-rule="evenodd" d="M22.0238 3.75403C22.2431 3.8986 22.375 4.14364 22.375 4.40625V19.25C22.375 19.5625 22.1888 19.845 21.9015 19.9681L16.4327 22.3118C16.2477 22.3911 16.0392 22.396 15.8507 22.3253L9.89441 20.0917L4.714 22.3118C4.47262 22.4153 4.19542 22.3905 3.97618 22.246C3.75694 22.1014 3.625 21.8564 3.625 21.5938V6.75C3.625 6.43748 3.81125 6.15503 4.0985 6.03192L9.56725 3.68817C9.7523 3.60887 9.96081 3.60406 10.1493 3.67475L16.1056 5.90835L21.286 3.68817C21.5274 3.58472 21.8046 3.60947 22.0238 3.75403ZM5.1875 7.26516L9.09375 5.59105V18.7348L5.1875 20.409V7.26516ZM15.3438 20.4664L10.6562 18.7086V5.5336L15.3438 7.29141V20.4664ZM16.9062 20.409L20.8125 18.7348V5.59105L16.9062 7.26516V20.409Z" fill="#00857F"/>
</svg>
