<svg width="26" height="26" viewBox="0 0 26 26" fill="none" xmlns="http://www.w3.org/2000/svg">
<path fill-rule="evenodd" clip-rule="evenodd" d="M14.5625 4.40625C9.8163 4.40625 5.96875 8.2538 5.96875 13V13.4576L3.39624 10.8851L2.29138 11.9899L6.19763 15.8962C6.50273 16.2013 6.99739 16.2013 7.30249 15.8962L11.2087 11.9899L10.1039 10.8851L7.53125 13.4577V13C7.53125 9.11675 10.6792 5.96875 14.5625 5.96875C18.4458 5.96875 21.5938 9.11675 21.5938 13C21.5938 16.8833 18.4458 20.0312 14.5625 20.0312C12.2637 20.0312 10.2226 18.9289 8.93842 17.2207L7.6895 18.1597C9.25617 20.2436 11.7518 21.5938 14.5625 21.5938C19.3087 21.5938 23.1562 17.7462 23.1562 13C23.1562 8.2538 19.3087 4.40625 14.5625 4.40625Z" fill="#00857F"/>
</svg>
