<svg width="32" height="32" viewBox="0 0 32 32" xmlns="http://www.w3.org/2000/svg">
<path fill-rule="evenodd" clip-rule="evenodd" d="M18.2912 4C12.3769 4 7.58242 9.14873 7.58242 15.5V16.1123L4.37677 12.6699L3 14.1484L7.86763 19.3756C8.24782 19.7839 8.86422 19.7839 9.24441 19.3756L14.112 14.1484L12.7353 12.6699L9.52947 16.1125V15.5C9.52947 10.3035 13.4522 6.09091 18.2912 6.09091C23.1302 6.09091 27.0529 10.3035 27.0529 15.5C27.0529 20.6965 23.1302 24.9091 18.2912 24.9091C15.4267 24.9091 12.8833 23.434 11.283 21.1481L9.72667 22.4046C11.6789 25.1932 14.7887 27 18.2912 27C24.2055 27 29 21.8513 29 15.5C29 9.14873 24.2055 4 18.2912 4Z" />
</svg>
