<svg width="26" height="26" viewBox="0 0 26 26" fill="none" xmlns="http://www.w3.org/2000/svg">
<path fill-rule="evenodd" clip-rule="evenodd" d="M13 2.84375C13.3365 2.84375 13.6353 3.05927 13.7414 3.37865L15.9485 10.0209L23.1546 10.0056C23.4957 10.0049 23.7978 10.2256 23.901 10.5507C24.0041 10.8759 23.8843 11.2303 23.6051 11.4263L17.7863 15.5107L20.0172 22.1253C20.1253 22.4459 20.0148 22.7997 19.7434 23.0017C19.472 23.2037 19.1014 23.2081 18.8253 23.0125L13 18.8858L7.1747 23.0125C6.89862 23.2081 6.52802 23.2037 6.25662 23.0017C5.98521 22.7997 5.87468 22.4459 5.98281 22.1253L8.21366 15.5107L2.3949 11.4263C2.1157 11.2303 1.99593 10.8759 2.09904 10.5507C2.20215 10.2256 2.50429 10.0049 2.8454 10.0056L10.0515 10.0209L12.2586 3.37865C12.3647 3.05927 12.6635 2.84375 13 2.84375ZM13 6.10258L11.3562 11.0497C11.2498 11.3697 10.9503 11.5853 10.6131 11.5846L5.32407 11.5734L9.58947 14.5674C9.87297 14.7664 9.99159 15.1283 9.8809 15.4565L8.23066 20.3496L12.5484 17.2909C12.819 17.0992 13.181 17.0992 13.4516 17.2909L17.7693 20.3496L16.1191 15.4565C16.0084 15.1283 16.127 14.7664 16.4105 14.5674L20.6759 11.5734L15.3869 11.5846C15.0497 11.5853 14.7501 11.3697 14.6438 11.0497L13 6.10258Z" fill="#00857F"/>
</svg>
