<svg width="26" height="26" viewBox="0 0 26 26" fill="none" xmlns="http://www.w3.org/2000/svg">
<path fill-rule="evenodd" clip-rule="evenodd" d="M13.7812 1.28125V5.1875H12.2188V1.28125H13.7812ZM7.53125 13C7.53125 9.97969 9.97969 7.53125 13 7.53125C16.0203 7.53125 18.4688 9.97969 18.4688 13C18.4688 16.0203 16.0203 18.4688 13 18.4688C9.97969 18.4688 7.53125 16.0203 7.53125 13ZM13 9.09375C10.8426 9.09375 9.09375 10.8426 9.09375 13C9.09375 15.1574 10.8426 16.9062 13 16.9062C15.1574 16.9062 16.9062 15.1574 16.9062 13C16.9062 10.8426 15.1574 9.09375 13 9.09375ZM13.7812 24.7188V20.8125H12.2188V24.7188H13.7812ZM24.7188 13.7812H20.8125V12.2188H24.7188V13.7812ZM1.28125 13.7812H5.1875V12.2188H1.28125V13.7812ZM21.6099 5.49484L18.8478 8.25698L17.7429 7.15213L20.505 4.38999L21.6099 5.49484ZM5.49479 21.61L8.25692 18.8479L7.15207 17.7431L4.38993 20.5052L5.49479 21.61ZM5.49508 4.38997L8.25722 7.1521L7.15236 8.25696L4.39023 5.49482L5.49508 4.38997ZM21.6102 20.5051L18.848 17.743L17.7432 18.8478L20.5053 21.61L21.6102 20.5051Z" fill="#00857F"/>
</svg>
