<?xml version="1.0" encoding="UTF-8"?>
<svg width="640px" height="710px" viewBox="0 0 640 710" version="1.1" xmlns="http://www.w3.org/2000/svg" xmlns:xlink="http://www.w3.org/1999/xlink">
    <!-- Generator: Sketch 58 (84663) - https://sketch.com -->
    <title>sidebar-bg</title>
    <desc>Created with Sketch.</desc>
    <defs>
        <rect id="path-1" x="0" y="0" width="640" height="811"></rect>
        <filter x="-1.2%" y="-1.0%" width="102.5%" height="102.0%" filterUnits="objectBoundingBox" id="filter-3">
            <feOffset dx="0" dy="4" in="SourceAlpha" result="shadowOffsetOuter1"></feOffset>
            <feGaussianBlur stdDeviation="6" in="shadowOffsetOuter1" result="shadowBlurOuter1"></feGaussianBlur>
            <feComposite in="shadowBlurOuter1" in2="SourceAlpha" operator="out" result="shadowBlurOuter1"></feComposite>
            <feColorMatrix values="0 0 0 0 0.657070879   0 0 0 0 0.657070879   0 0 0 0 0.657070879  0 0 0 0.179496285 0" type="matrix" in="shadowBlurOuter1"></feColorMatrix>
        </filter>
    </defs>
    <g id="sidebar-bg" stroke="none" stroke-width="1" fill="none" fill-rule="evenodd">
        <g id="Group-19">
            <mask id="mask-2" fill="white">
                <use xlink:href="#path-1"></use>
            </mask>
            <g id="Mask" opacity="0">
                <use fill="black" fill-opacity="1" filter="url(#filter-3)" xlink:href="#path-1"></use>
                <rect stroke="#ECECEF" stroke-width="1" stroke-linejoin="square" fill="#F7F9F9" fill-rule="evenodd" x="0.5" y="0.5" width="639" height="810"></rect>
            </g>
            <g mask="url(#mask-2)" fill="#00C5BD" id="Rectangle-6">
                <g transform="translate(-12.000000, -244.000000)">
                    <path d="M1.17360439,0 L14.0373293,0 L508.714084,94.3302752 C607.571361,185.610092 654,278.541667 648,373.125 C639,515 553.480923,599.662602 431.389543,564.201835 C195.992474,495.832057 231.511524,702.630424 104.795101,816.93578 C72.1049251,846.424161 37.1732246,897.445568 0,970 L1.17360439,0 Z" opacity="0.200000003"></path>
                    <path d="M1.15350098,145 L13.796875,145 L500,211.25 C598.666667,243.75 644,305 636,395 C624,530 544,566.154791 424,541.25 C192.635195,493.232565 227.545818,638.47111 103,718.75 C70.8697944,739.460268 36.5364611,775.293601 -2.27373675e-13,826.25 L1.15350098,145 Z"></path>
                </g>
            </g>
        </g>
    </g>
</svg>