<svg width="24" height="24" viewBox="0 0 24 24" fill="none" xmlns="http://www.w3.org/2000/svg">
<path d="M10.2344 15.3164V14.4492C10.2344 13.918 10.3086 13.4492 10.457 13.043C10.6055 12.6289 10.8438 12.2383 11.1719 11.8711C11.5 11.4961 11.9336 11.1133 12.4727 10.7227C12.957 10.3789 13.3438 10.0703 13.6328 9.79688C13.9297 9.52344 14.1445 9.25391 14.2773 8.98828C14.418 8.71484 14.4883 8.40625 14.4883 8.0625C14.4883 7.55469 14.3008 7.16797 13.9258 6.90234C13.5508 6.63672 13.0273 6.50391 12.3555 6.50391C11.6836 6.50391 11.0156 6.60938 10.3516 6.82031C9.69531 7.03125 9.02734 7.30859 8.34766 7.65234L7.07031 5.08594C7.85156 4.64844 8.69922 4.29688 9.61328 4.03125C10.5273 3.75781 11.5273 3.62109 12.6133 3.62109C14.2852 3.62109 15.5781 4.02344 16.4922 4.82812C17.4141 5.625 17.875 6.64063 17.875 7.875C17.875 8.53125 17.7695 9.10156 17.5586 9.58594C17.3555 10.0625 17.043 10.5078 16.6211 10.9219C16.207 11.3281 15.6875 11.7578 15.0625 12.2109C14.5938 12.5547 14.2344 12.8438 13.9844 13.0781C13.7344 13.3125 13.5625 13.5469 13.4688 13.7812C13.3828 14.0078 13.3398 14.2852 13.3398 14.6133V15.3164H10.2344ZM9.85938 19.3242C9.85938 18.5898 10.0586 18.0742 10.457 17.7773C10.8633 17.4805 11.3516 17.332 11.9219 17.332C12.4766 17.332 12.9531 17.4805 13.3516 17.7773C13.7578 18.0742 13.9609 18.5898 13.9609 19.3242C13.9609 20.0273 13.7578 20.5352 13.3516 20.8477C12.9531 21.1602 12.4766 21.3164 11.9219 21.3164C11.3516 21.3164 10.8633 21.1602 10.457 20.8477C10.0586 20.5352 9.85938 20.0273 9.85938 19.3242Z" fill="white"/>
</svg>
