<svg width="24" height="24" viewBox="0 0 24 24" fill="none" xmlns="http://www.w3.org/2000/svg">
<path fill-rule="evenodd" clip-rule="evenodd" d="M4.5 2.25C3.25736 2.25 2.25 3.25736 2.25 4.5V19.5C2.25 20.7426 3.25736 21.75 4.5 21.75H19.5C20.7426 21.75 21.75 20.7426 21.75 19.5V9.23529C21.75 8.69113 21.3089 8.25 20.7647 8.25H18.75V4.5C18.75 3.25736 17.7426 2.25 16.5 2.25H4.5ZM20.25 19.5C20.25 19.9142 19.9142 20.25 19.5 20.25C19.0858 20.25 18.75 19.9142 18.75 19.5V12V9.75H20.25V19.5ZM17.25 12V9V4.5C17.25 4.08579 16.9142 3.75 16.5 3.75H4.5C4.08579 3.75 3.75 4.08579 3.75 4.5V19.5C3.75 19.9142 4.08579 20.25 4.5 20.25H17.378C17.2951 20.0154 17.25 19.763 17.25 19.5V12ZM6 5.25C5.58579 5.25 5.25 5.58579 5.25 6V9C5.25 9.41421 5.58579 9.75 6 9.75H9C9.41421 9.75 9.75 9.41421 9.75 9V6C9.75 5.58579 9.41421 5.25 9 5.25H6ZM6.75 8.25V6.75H8.25V8.25H6.75ZM6 11.25C5.58579 11.25 5.25 11.5858 5.25 12C5.25 12.4142 5.58579 12.75 6 12.75H15C15.4142 12.75 15.75 12.4142 15.75 12C15.75 11.5858 15.4142 11.25 15 11.25H6ZM5.25 15C5.25 14.5858 5.58579 14.25 6 14.25H15C15.4142 14.25 15.75 14.5858 15.75 15C15.75 15.4142 15.4142 15.75 15 15.75H6C5.58579 15.75 5.25 15.4142 5.25 15ZM6 17.25C5.58579 17.25 5.25 17.5858 5.25 18C5.25 18.4142 5.58579 18.75 6 18.75H15C15.4142 18.75 15.75 18.4142 15.75 18C15.75 17.5858 15.4142 17.25 15 17.25H6Z" fill="white"/>
</svg>
