<?xml version="1.0" standalone="no"?>
<!DOCTYPE svg PUBLIC "-//W3C//DTD SVG 20010904//EN"
 "http://www.w3.org/TR/2001/REC-SVG-20010904/DTD/svg10.dtd">
<svg version="1.0" xmlns="http://www.w3.org/2000/svg"
 width="512.000000pt" height="512.000000pt" viewBox="0 0 512.000000 512.000000"
 preserveAspectRatio="xMidYMid meet">
<metadata>
Created by potrace 1.11, written by Peter Selinger 2001-2013
</metadata>
<g transform="translate(0.000000,512.000000) scale(0.100000,-0.100000)"
fill="#000000" stroke="none">
<path d="M2419 4186 c-2 -2 -33 -7 -68 -10 -35 -3 -67 -9 -72 -12 -5 -3 -9 1
-9 8 0 9 -3 9 -8 2 -4 -6 -41 -19 -82 -28 -109 -26 -233 -71 -330 -119 -47
-23 -88 -41 -92 -39 -5 1 -8 -2 -8 -6 0 -11 -75 -53 -84 -47 -3 3 -4 2 -1 -1
2 -4 -32 -33 -76 -66 -294 -215 -514 -540 -605 -895 -14 -54 -27 -109 -30
-123 -30 -185 -24 -512 12 -632 3 -10 7 -30 10 -45 9 -52 74 -234 108 -306
104 -216 245 -400 421 -548 22 -19 42 -37 45 -40 3 -4 50 -37 105 -73 87 -59
164 -100 295 -159 64 -29 195 -68 280 -83 14 -3 32 -7 40 -9 43 -12 141 -19
280 -19 193 -1 273 8 395 41 33 9 72 17 87 17 14 1 24 4 22 8 -2 3 10 9 27 13
27 6 125 47 209 88 34 16 194 110 200 117 3 3 21 17 40 30 19 13 42 31 51 39
33 32 60 51 71 51 6 0 9 2 7 5 -3 2 33 45 81 94 98 103 92 96 150 181 25 36
48 66 53 68 4 2 7 8 7 13 0 5 12 28 27 52 15 23 28 49 29 57 2 8 8 16 13 18 6
2 11 9 11 16 0 7 13 42 29 78 41 91 77 201 98 308 3 14 6 32 8 40 2 8 4 28 4
43 1 16 5 26 9 23 9 -5 8 397 -1 455 -10 64 -49 222 -72 290 -13 37 -21 70
-17 73 3 3 0 6 -6 6 -7 0 -12 5 -12 11 0 15 -95 203 -120 238 -11 16 -20 32
-20 36 0 7 -109 153 -138 185 -95 103 -270 260 -291 260 -4 0 -16 9 -28 19
-24 23 -157 99 -233 133 -118 54 -278 104 -392 123 -16 3 -43 8 -60 11 -39 7
-363 16 -369 10z"/>
</g>
</svg>
