<?xml version="1.0" encoding="UTF-8"?>
<svg width="637px" height="563px" viewBox="0 0 637 563" version="1.1" xmlns="http://www.w3.org/2000/svg" xmlns:xlink="http://www.w3.org/1999/xlink">
    <!-- Generator: Sketch 55.2 (78181) - https://sketchapp.com -->
    <title>Group 19</title>
    <desc>Created with Sketch.</desc>
    <defs>
        <rect id="path-1" x="0" y="0" width="640" height="581"></rect>
        <filter x="-1.2%" y="-1.4%" width="102.5%" height="102.8%" filterUnits="objectBoundingBox" id="filter-3">
            <feOffset dx="0" dy="4" in="SourceAlpha" result="shadowOffsetOuter1"></feOffset>
            <feGaussianBlur stdDeviation="6" in="shadowOffsetOuter1" result="shadowBlurOuter1"></feGaussianBlur>
            <feComposite in="shadowBlurOuter1" in2="SourceAlpha" operator="out" result="shadowBlurOuter1"></feComposite>
            <feColorMatrix values="0 0 0 0 0.657070879   0 0 0 0 0.657070879   0 0 0 0 0.657070879  0 0 0 0.179496285 0" type="matrix" in="shadowBlurOuter1"></feColorMatrix>
        </filter>
    </defs>
    <g id="Design" stroke="none" strokeWidth="1" fill="none" fill-rule="evenodd">
        <g id="BG-map">
            <g id="Group-19">
                <mask id="mask-2" fill="white">
                    <use xlink:href="#path-1"></use>
                </mask>
                <g id="Mask" opacity="0">
                    <use fill="black" fill-opacity="1" filter="url(#filter-3)" xlink:href="#path-1"></use>
                    <rect stroke="#ECECEF" strokeWidth="1" strokeLinejoin="square" fill="#F7F9F9" fill-rule="evenodd" x="0.5" y="0.5" width="639" height="580"></rect>
                </g>
                <g mask="url(#mask-2)" fill="#00C5BD" id="Rectangle-6">
                    <g transform="translate(-12.000000, -195.000000)">
                        <path d="M1.17360439,0 L14.0373293,0 L508.714084,75.4642202 C607.571361,148.488073 654,222.833333 648,298.5 C639,412 553.480923,479.730081 431.389543,451.361468 C195.992474,396.665645 231.511524,562.104339 104.795101,653.548624 C72.1049251,677.139329 37.1732246,717.956454 0,776 L1.17360439,0 Z" opacity="0.200000003"></path>
                        <path d="M1.15350098,116 L13.796875,116 L500,169 C598.666667,195 644,244 636,316 C624,424 544,452.923833 424,433 C192.635195,394.586052 227.545818,510.776888 103,575 C70.8697944,591.568214 36.5364611,620.234881 0,661 L1.15350098,116 Z"></path>
                    </g>
                </g>
            </g>
        </g>
    </g>
</svg>