<svg width="32" height="32" viewBox="0 0 32 32" fill="none" xmlns="http://www.w3.org/2000/svg">
<path fill-rule="evenodd" clip-rule="evenodd" d="M10.4615 4.99997C9.4844 4.99997 8.6923 5.79207 8.6923 6.76918C8.6923 7.74629 9.4844 8.53839 10.4615 8.53839C11.4386 8.53839 12.2307 7.74629 12.2307 6.76918C12.2307 5.79207 11.4386 4.99997 10.4615 4.99997ZM6.69233 6.76918C6.69233 4.68752 8.37985 3 10.4615 3C12.5432 3 14.2307 4.68752 14.2307 6.76918C14.2307 8.81794 12.5961 10.4849 10.5599 10.5371L8.30948 21.7893C9.17378 22.1768 9.86556 22.8803 10.2377 23.7529L21.5386 22.6228C21.7193 21.7421 22.2072 20.9735 22.8854 20.4337L22.0375 17.89C21.8741 17.9117 21.7073 17.9228 21.538 17.9228C19.4563 17.9228 17.7688 16.2353 17.7688 14.1537C17.7688 12.072 19.4563 10.3845 21.538 10.3845C23.6197 10.3845 25.3072 12.072 25.3072 14.1537C25.3072 15.3486 24.7511 16.4136 23.8837 17.1042L24.7316 19.648C24.895 19.6264 25.0616 19.6152 25.2308 19.6152C27.3125 19.6152 29 21.3027 29 23.3844C29 25.4661 27.3125 27.1536 25.2308 27.1536C23.5818 27.1536 22.1802 26.0947 21.6687 24.6197L10.5047 25.7361C10.2577 27.5787 8.67938 28.9996 6.76918 28.9996C4.68752 28.9996 3 27.3121 3 25.2305C3 23.2972 4.45549 21.7039 6.33046 21.4865L8.61644 10.0567C7.46807 9.41076 6.69233 8.18056 6.69233 6.76918ZM6.76918 23.4612C5.79207 23.4612 4.99997 24.2533 4.99997 25.2305C4.99997 26.2076 5.79207 26.9997 6.76918 26.9997C7.74629 26.9997 8.53839 26.2076 8.53839 25.2305C8.53839 24.2533 7.74629 23.4612 6.76918 23.4612ZM23.4616 23.3844C23.4616 22.4073 24.2537 21.6152 25.2308 21.6152C26.2079 21.6152 27 22.4073 27 23.3844C27 24.3615 26.2079 25.1536 25.2308 25.1536C24.2537 25.1536 23.4616 24.3615 23.4616 23.3844ZM21.538 12.3844C20.5609 12.3844 19.7688 13.1765 19.7688 14.1537C19.7688 15.1308 20.5609 15.9229 21.538 15.9229C22.5151 15.9229 23.3072 15.1308 23.3072 14.1537C23.3072 13.1765 22.5151 12.3844 21.538 12.3844Z" fill="white"/>
</svg>
