<svg width="32" height="32" viewBox="0 0 32 32" fill="none" xmlns="http://www.w3.org/2000/svg">
<path fill-rule="evenodd" clip-rule="evenodd" d="M11.3137 6.69231C10.4869 6.69231 9.81663 7.36256 9.81663 8.18935C9.81663 9.01615 10.4869 9.6864 11.3137 9.6864C12.1405 9.6864 12.8107 9.01615 12.8107 8.18935C12.8107 7.36256 12.1405 6.69231 11.3137 6.69231ZM8.12432 8.18935C8.12432 6.42792 9.55224 5 11.3137 5C13.0751 5 14.503 6.42792 14.503 8.18935C14.503 9.92294 13.1199 11.3335 11.3969 11.3776L9.4927 20.8989C10.224 21.2268 10.8094 21.8221 11.1243 22.5604L20.6867 21.6041C20.8397 20.8589 21.2525 20.2085 21.8263 19.7518L21.1089 17.5994C20.9706 17.6177 20.8295 17.6272 20.6862 17.6272C18.9248 17.6272 17.4969 16.1993 17.4969 14.4378C17.4969 12.6764 18.9248 11.2485 20.6862 11.2485C22.4477 11.2485 23.8756 12.6764 23.8756 14.4378C23.8756 15.4489 23.4051 16.3501 22.6711 16.9345L23.3886 19.087C23.5268 19.0687 23.6678 19.0592 23.811 19.0592C25.5724 19.0592 27.0003 20.4872 27.0003 22.2486C27.0003 24.01 25.5724 25.4379 23.811 25.4379C22.4156 25.4379 21.2296 24.5419 20.7968 23.2939L11.3503 24.2385C11.1412 25.7976 9.80569 27 8.18935 27C6.42792 27 5 25.5721 5 23.8106C5 22.1748 6.23159 20.8266 7.81812 20.6427L9.75244 10.9711C8.78073 10.4246 8.12432 9.38361 8.12432 8.18935ZM8.18935 22.3136C7.36256 22.3136 6.69231 22.9838 6.69231 23.8106C6.69231 24.6374 7.36256 25.3077 8.18935 25.3077C9.01615 25.3077 9.6864 24.6374 9.6864 23.8106C9.6864 22.9838 9.01615 22.3136 8.18935 22.3136ZM22.3139 22.2486C22.3139 21.4218 22.9842 20.7515 23.811 20.7515C24.6378 20.7515 25.308 21.4218 25.308 22.2486C25.308 23.0754 24.6378 23.7456 23.811 23.7456C22.9842 23.7456 22.3139 23.0754 22.3139 22.2486ZM20.6862 12.9408C19.8594 12.9408 19.1892 13.611 19.1892 14.4378C19.1892 15.2646 19.8594 15.9349 20.6862 15.9349C21.513 15.9349 22.1833 15.2646 22.1833 14.4378C22.1833 13.611 21.513 12.9408 20.6862 12.9408Z" fill="white"/>
</svg>
