<svg width="32" height="32" viewBox="0 0 32 32" fill="none" xmlns="http://www.w3.org/2000/svg">
<path fill-rule="evenodd" clip-rule="evenodd" d="M18.5618 5.2254C23.0976 5.2254 26.7746 8.90238 26.7746 13.4382C26.7746 17.974 23.0976 21.651 18.5618 21.651C16.3483 21.651 14.3393 20.7752 12.8623 19.3514L12.6486 19.1377C11.2248 17.6607 10.349 15.6517 10.349 13.4382C10.349 8.90238 14.026 5.2254 18.5618 5.2254ZM10.4359 19.9905C8.98965 18.1991 8.12365 15.9198 8.12365 13.4382C8.12365 7.67333 12.797 3 18.5618 3C24.3267 3 29 7.67333 29 13.4382C29 19.203 24.3267 23.8763 18.5618 23.8763C16.0802 23.8763 13.8009 23.0104 12.0095 21.5641L4.57359 29L3 27.4264L10.4359 19.9905Z" fill="white"/>
</svg>
