<svg width="32" height="32" viewBox="0 0 32 32" fill="none" xmlns="http://www.w3.org/2000/svg">
<path fill-rule="evenodd" clip-rule="evenodd" d="M18.1677 6.88303C22.0057 6.88303 25.117 9.99432 25.117 13.8323C25.117 17.6703 22.0057 20.7816 18.1677 20.7816C16.2947 20.7816 14.5948 20.0406 13.3451 18.8358L13.1642 18.6549C11.9594 17.4052 11.2184 15.7053 11.2184 13.8323C11.2184 9.99432 14.3297 6.88303 18.1677 6.88303ZM11.2919 19.3766C10.0682 17.8608 9.3354 15.9321 9.3354 13.8323C9.3354 8.95436 13.2898 5 18.1677 5C23.0456 5 27 8.95436 27 13.8323C27 18.7102 23.0456 22.6646 18.1677 22.6646C16.0679 22.6646 14.1392 21.9318 12.6234 20.7081L6.3315 27L5 25.6685L11.2919 19.3766Z" fill="white"/>
</svg>
