<svg width="32" height="32" viewBox="0 0 32 32" fill="none" xmlns="http://www.w3.org/2000/svg">
<path fill-rule="evenodd" clip-rule="evenodd" d="M15 17.0003V26.4393C14.4734 26.1279 13.8411 25.6771 13.2071 25.0431C11.76 23.596 10.2385 21.1301 10.0253 17.0003H15ZM17 17.0003V26.4394C17.5267 26.128 18.1591 25.6772 18.7932 25.0431C20.2403 23.596 21.7618 21.1301 21.9749 17.0003H17ZM21.9749 15.0003H17V5.5611C17.5267 5.87251 18.1591 6.32329 18.7932 6.95737C20.2403 8.4045 21.7618 10.8704 21.9749 15.0003ZM23.9773 17.0003C23.7781 21.2744 22.3108 24.1173 20.6761 25.9598C24.1269 24.3368 26.5972 20.9731 26.9552 17.0003H23.9773ZM26.9552 15.0003H23.9773C23.7781 10.7262 22.3108 7.88327 20.6761 6.04079C24.1269 7.66381 26.5972 11.0275 26.9552 15.0003ZM15 15.0003H10.0253C10.2385 10.8704 11.76 8.4045 13.2071 6.95737C13.8411 6.3234 14.4734 5.87265 15 5.56125V15.0003ZM8.02296 15.0003C8.22218 10.726 9.68956 7.88305 11.3244 6.04057C7.87329 7.66351 5.40286 11.0273 5.04484 15.0003H8.02296ZM5.04484 17.0003C5.40286 20.9732 7.8733 24.3371 11.3244 25.96C9.68959 24.1175 8.22219 21.2745 8.02297 17.0003H5.04484ZM15.9756 3.0003C15.9845 3.00008 15.9934 2.99998 16.0024 3L16.0247 3.0003C23.193 3.01363 29 8.82881 29 16.0003C29 23.1722 23.1923 28.9876 16.0234 29.0002L16.0024 29.0005C15.9939 29.0005 15.9854 29.0004 15.9769 29.0002C8.80781 28.9878 3 23.1723 3 16.0003C3 8.82871 8.8071 3.01348 15.9756 3.0003Z" fill="white"/>
</svg>
