<svg width="32" height="32" viewBox="0 0 32 32" fill="none" xmlns="http://www.w3.org/2000/svg">
<path fill-rule="evenodd" clip-rule="evenodd" d="M15.1536 16.8461V24.8328C14.7081 24.5693 14.173 24.188 13.6366 23.6515C12.4121 22.4271 11.1248 20.3405 10.9444 16.8461H15.1536ZM16.8459 16.8461V24.833C17.2916 24.5695 17.8267 24.188 18.3632 23.6515C19.5876 22.4271 20.875 20.3405 21.0554 16.8461H16.8459ZM21.0554 15.1539H16.8459V7.16704C17.2916 7.43053 17.8267 7.81196 18.3632 8.34847C19.5876 9.57295 20.875 11.6595 21.0554 15.1539ZM22.7497 16.8461C22.5811 20.4626 21.3396 22.8681 19.9564 24.4271C22.8763 23.0538 24.9664 20.2077 25.2693 16.8461H22.7497ZM25.2693 15.1539H22.7497C22.5811 11.5374 21.3396 9.13192 19.9564 7.57292C22.8763 8.94622 24.9664 11.7924 25.2693 15.1539ZM15.1536 15.1539H10.9444C11.1248 11.6595 12.4121 9.57295 13.6366 8.34847C14.173 7.81205 14.7081 7.43066 15.1536 7.16717V15.1539ZM9.25012 15.1539C9.41868 11.5373 10.6603 9.13173 12.0435 7.57274C9.12347 8.94597 7.03315 11.7922 6.73022 15.1539H9.25012ZM6.73022 16.8461C7.03315 20.2078 9.12348 23.0541 12.0436 24.4273C10.6603 22.8683 9.41869 20.4627 9.25012 16.8461H6.73022ZM15.9791 5.00025C15.9867 5.00007 15.9942 4.99998 16.0018 5L16.0207 5.00025C22.0861 5.01153 26.9996 9.93197 26.9996 16C26.9996 22.0684 22.0855 26.9891 16.0196 26.9998L16.0018 27C15.9946 27 15.9874 26.9999 15.9802 26.9998C9.9142 26.9892 5 22.0685 5 16C5 9.93189 9.91361 5.0114 15.9791 5.00025Z" fill="white"/>
</svg>
