<svg width="24" height="24" viewBox="0 0 24 24" fill="none" xmlns="http://www.w3.org/2000/svg">
<path fill-rule="evenodd" clip-rule="evenodd" d="M9 1H6V3H9V1ZM14 6H12.5353L10.8321 8.55471C10.7956 8.6095 10.7537 8.66055 10.7072 8.70712L8.91426 10.5L11.7072 13.293L10.293 14.7072L7.50004 11.9143L4.70718 14.7071L3.29297 13.2929L6.08583 10.5L4.29297 8.70718L5.70718 7.29297L7.50004 9.08583L9.22295 7.36292L10.1316 6H2V4H14V6ZM16.9999 11C17.3787 11 17.7249 11.214 17.8943 11.5528L20.8835 17.5312C20.8913 17.5459 20.8988 17.5607 20.9058 17.5758L22.8943 21.5528L21.1055 22.4472L19.3819 19H14.6179L12.8943 22.4472L11.1055 21.5528L13.098 17.5676C13.1026 17.5581 13.1074 17.5486 13.1122 17.5392L16.1055 11.5528C16.2749 11.214 16.6211 11 16.9999 11ZM15.6179 17H18.3819L16.9999 14.2361L15.6179 17Z" fill="white"/>
</svg>
