<svg width="98" height="33" viewBox="0 0 98 33" fill="none" xmlns="http://www.w3.org/2000/svg">
<path fill-rule="evenodd" clip-rule="evenodd" d="M83.2998 14.0388C83.9523 13.3247 84.2786 12.303 84.2786 10.9736C84.2786 9.64062 83.955 8.6189 83.3079 7.90845C82.6609 7.19799 81.7265 6.84277 80.5048 6.84277C79.2831 6.84277 78.3452 7.19525 77.6908 7.90021C77.0365 8.60517 76.7093 9.62597 76.7093 10.9626C76.7093 12.2993 77.0356 13.3247 77.6881 14.0388C78.3406 14.7529 79.2759 15.11 80.4939 15.11C81.712 15.11 82.6473 14.7529 83.2998 14.0388ZM64.6649 10.4902H67.8187V14.6541C67.3076 14.8225 66.8263 14.9406 66.375 15.0084C65.9237 15.0761 65.4624 15.11 64.9911 15.11C63.7912 15.11 62.875 14.7538 62.2424 14.0416C61.6098 13.3293 61.2935 12.3066 61.2935 10.9736C61.2935 9.67724 61.6605 8.66651 62.3946 7.94141C63.1287 7.2163 64.1465 6.85376 65.4479 6.85376C66.2635 6.85376 67.0502 7.01855 67.8078 7.34814L67.2478 8.71045C66.6677 8.41748 66.0642 8.271 65.437 8.271C64.7084 8.271 64.1247 8.51819 63.6861 9.01257C63.2474 9.50696 63.0281 10.1716 63.0281 11.0066C63.0281 11.8782 63.2048 12.5438 63.5583 13.0034C63.9117 13.463 64.4256 13.6927 65.0999 13.6927C65.4515 13.6927 65.8086 13.6561 66.1711 13.5829V11.9075H64.6649V10.4902ZM49.2001 13.0885L49.7765 15.0001H51.5927L48.776 6.93616H46.7151L43.9092 15.0001H45.7254L46.3018 13.0885H49.2001ZM35.8615 8.69946L37.7755 15.0001H39.3198L41.3699 8.71045H41.4188C41.3956 9.24951 41.3778 9.67816 41.3654 9.99639L41.3418 10.7488C41.3388 10.9142 41.3372 11.0643 41.3372 11.1989V15.0001H42.9087V6.96912H40.614L38.6184 13.1105H38.5858L36.7043 6.96912H34.4096V15.0001H35.9159V11.2648C35.9159 10.997 35.9024 10.5625 35.8755 9.96143L35.8125 8.69946H35.8615ZM46.726 11.6603H48.7977L47.8978 8.72144L47.8264 8.47183C47.7953 8.35845 47.7711 8.26221 47.7537 8.18311L47.6061 8.72066C47.4306 9.33541 47.1373 10.3153 46.726 11.6603ZM57.5034 15.0001H59.6459V6.96912H58.1288V10.7704C58.1288 11.0031 58.1367 11.3244 58.1524 11.7344L58.2103 12.9841H58.1723L54.7193 6.96912H52.5932V15.0001H54.0995V11.2208C54.0995 10.8687 54.0791 10.3346 54.0383 9.61838L53.9961 8.92468H54.0451L57.5034 15.0001ZM71.9405 10.5342H71.3967V8.36438H71.9078C72.4516 8.36438 72.8531 8.44495 73.1123 8.60608C73.3715 8.76721 73.5011 9.03821 73.5011 9.41907C73.5011 9.80359 73.3742 10.0856 73.1204 10.265C72.8667 10.4445 72.4734 10.5342 71.9405 10.5342ZM71.3967 11.9185V15.0001H69.711V6.96912H72.0275C73.1078 6.96912 73.9071 7.16778 74.4255 7.56512C74.9439 7.96247 75.2031 8.56579 75.2031 9.37512C75.2031 9.84754 75.0744 10.2678 74.817 10.6358C74.5596 11.0038 74.1953 11.2922 73.724 11.501L75.8991 14.7612C75.9606 14.8517 76.015 14.9313 76.0622 15.0001H74.1917L72.2939 11.9185H71.3967ZM78.4766 10.9736C78.4766 11.8709 78.6451 12.5465 78.9823 13.0006C79.3194 13.4547 79.8233 13.6818 80.4939 13.6818C81.8389 13.6818 82.5113 12.7791 82.5113 10.9736C82.5113 9.16454 81.8425 8.26001 80.5048 8.26001C79.8342 8.26001 79.3285 8.48797 78.9877 8.94391C78.6469 9.39984 78.4766 10.0764 78.4766 10.9736ZM92.1632 6.96912H90.4612L88.955 11.7482C88.723 12.5905 88.587 13.1801 88.5471 13.517C88.5363 13.4437 88.517 13.3419 88.4894 13.2114L88.3813 12.7342C88.2925 12.3588 88.2064 12.0302 88.123 11.7482L86.6276 6.96912H84.9256L87.6227 15.0001H89.4607L92.1632 6.96912ZM97.7423 15.0001H93.1637V6.96912H97.7423V8.36438H94.8494V10.1277H97.5411V11.5229H94.8494V13.5939H97.7423V15.0001ZM38.7 24.3385L39.2763 26.2501H41.0925L38.2758 18.1862H36.2149L33.4091 26.2501H35.2253L35.8017 24.3385H38.7ZM36.2258 22.9103H38.2976L37.3976 19.9714L37.3263 19.7218C37.2952 19.6084 37.2709 19.5122 37.2535 19.4331L37.1059 19.9707C36.9305 20.5854 36.6371 21.5653 36.2258 22.9103ZM43.4742 26.2501H45.1599V19.6364H47.3187V18.2191H41.3155V19.6364H43.4742V26.2501ZM48.5421 26.2501V18.2191H50.2278V24.8439H53.4524V26.2501H48.5421ZM59.1239 24.3385L59.7003 26.2501H61.5164L58.6997 18.1862H56.6389L53.833 26.2501H55.6492L56.2256 24.3385H59.1239ZM56.6497 22.9103H58.7215L57.8215 19.9714L57.7502 19.7218C57.7191 19.6084 57.6948 19.5122 57.6774 19.4331L57.5298 19.9707C57.3544 20.5854 57.061 21.5653 56.6497 22.9103ZM66.4348 25.7338C66.9514 25.3163 67.2097 24.745 67.2097 24.0199C67.2097 23.4962 67.0719 23.054 66.7964 22.6933C66.5209 22.3326 66.0116 21.9728 65.2684 21.6139L64.7371 21.3513C64.4747 21.2174 64.2957 21.1173 64.1999 21.0508C64.0495 20.9465 63.9398 20.8384 63.871 20.7267C63.8021 20.6151 63.7676 20.4841 63.7676 20.334C63.7676 20.0923 63.8528 19.8964 64.0232 19.7462C64.1936 19.5961 64.4383 19.521 64.7573 19.521C65.0256 19.521 65.2984 19.5558 65.5757 19.6254C65.853 19.6949 66.2037 19.8176 66.6279 19.9934L67.1716 18.6696C66.762 18.4901 66.3696 18.351 65.9944 18.2521C65.6192 18.1532 65.2249 18.1038 64.8117 18.1038C63.9706 18.1038 63.3118 18.307 62.8351 18.7135C62.3584 19.12 62.12 19.6785 62.12 20.3889C62.12 20.7661 62.1925 21.0957 62.3375 21.3777C62.4825 21.6597 62.6765 21.9069 62.9194 22.1193C63.1623 22.3317 63.5266 22.5532 64.0123 22.7839L64.4317 22.9898C64.6384 23.094 64.8014 23.1812 64.9207 23.2515L65.0428 23.3278C65.2114 23.4413 65.3391 23.5594 65.4261 23.6821C65.5131 23.8047 65.5566 23.9448 65.5566 24.1023C65.5566 24.3843 65.4579 24.5967 65.2603 24.7395C65.0627 24.8823 64.7791 24.9537 64.4093 24.9537C64.1012 24.9537 63.7613 24.9043 63.3897 24.8054C63.0182 24.7065 62.5641 24.5363 62.0276 24.2946V25.8766C62.6801 26.1989 63.4305 26.36 64.2788 26.36C65.1996 26.36 65.9182 26.1512 66.4348 25.7338Z" fill="white"/>
<path fill-rule="evenodd" clip-rule="evenodd" d="M12.25 6.75C14.0951 6.75 15.5909 5.23896 15.5909 3.375C15.5909 1.51104 14.0951 0 12.25 0C10.4049 0 8.90909 1.51104 8.90909 3.375C8.90909 5.23896 10.4049 6.75 12.25 6.75ZM12.25 33C13.2751 33 14.1061 32.1605 14.1061 31.125C14.1061 30.0895 13.2751 29.25 12.25 29.25C11.2249 29.25 10.3939 30.0895 10.3939 31.125C10.3939 32.1605 11.2249 33 12.25 33ZM7.42424 7.5C7.42424 9.15685 6.09466 10.5 4.45455 10.5C2.81443 10.5 1.48485 9.15685 1.48485 7.5C1.48485 5.84315 2.81443 4.5 4.45455 4.5C6.09466 4.5 7.42424 5.84315 7.42424 7.5ZM2.59848 19.5C4.03359 19.5 5.19697 18.3247 5.19697 16.875C5.19697 15.4253 4.03359 14.25 2.59848 14.25C1.16338 14.25 0 15.4253 0 16.875C0 18.3247 1.16338 19.5 2.59848 19.5ZM9.65151 24.75C9.65151 25.9926 8.65433 27 7.42424 27C6.19415 27 5.19697 25.9926 5.19697 24.75C5.19697 23.5074 6.19415 22.5 7.42424 22.5C8.65433 22.5 9.65151 23.5074 9.65151 24.75ZM17.8182 27C19.0483 27 20.0455 25.9926 20.0455 24.75C20.0455 23.5074 19.0483 22.5 17.8182 22.5C16.5881 22.5 15.5909 23.5074 15.5909 24.75C15.5909 25.9926 16.5881 27 17.8182 27ZM23.0152 7.5C23.0152 9.15685 21.6856 10.5 20.0455 10.5C18.4053 10.5 17.0758 9.15685 17.0758 7.5C17.0758 5.84315 18.4053 4.5 20.0455 4.5C21.6856 4.5 23.0152 5.84315 23.0152 7.5ZM21.9015 19.5C23.3366 19.5 24.5 18.3247 24.5 16.875C24.5 15.4253 23.3366 14.25 21.9015 14.25C20.4664 14.25 19.303 15.4253 19.303 16.875C19.303 18.3247 20.4664 19.5 21.9015 19.5Z" fill="white"/>
</svg>
