<svg width="32" height="32" viewBox="0 0 32 32" fill="none" xmlns="http://www.w3.org/2000/svg">
<path fill-rule="evenodd" clip-rule="evenodd" d="M26.588 5.1514C26.8452 5.32102 27 5.60854 27 5.91667V23.3333C27 23.7 26.7815 24.0314 26.4444 24.1759L20.0278 26.9259C19.8106 27.0189 19.566 27.0246 19.3448 26.9416L12.3561 24.3209L6.27776 26.9259C5.99454 27.0473 5.66929 27.0182 5.41205 26.8486C5.15481 26.679 5 26.3915 5 26.0833V8.66667C5 8.29998 5.21853 7.96857 5.55557 7.82412L11.9722 5.07412C12.1894 4.98107 12.434 4.97543 12.6552 5.05837L19.6439 7.67913L25.7222 5.07412C26.0055 4.95274 26.3307 4.98178 26.588 5.1514ZM6.83333 9.27112L11.4167 7.30683V22.7289L6.83333 24.6932V9.27112ZM18.75 24.7606L13.25 22.6981V7.23942L18.75 9.30192V24.7606ZM20.5833 24.6932L25.1667 22.7289V7.30683L20.5833 9.27112V24.6932Z" fill="white"/>
</svg>
