<svg width="32" height="32" viewBox="0 0 32 32" xmlns="http://www.w3.org/2000/svg">
<path fill-rule="evenodd" clip-rule="evenodd" d="M17.9387 6C12.9343 6 8.87743 10.2533 8.87743 15.5V16.0059L6.16496 13.1621L5 14.3834L9.11877 18.7016C9.44046 19.0389 9.96203 19.0389 10.2837 18.7016L14.4025 14.3834L13.2375 13.1621L10.5249 16.006V15.5C10.5249 11.2072 13.8442 7.72727 17.9387 7.72727C22.0332 7.72727 25.3525 11.2072 25.3525 15.5C25.3525 19.7928 22.0332 23.2727 17.9387 23.2727C15.5149 23.2727 13.3628 22.0542 12.0087 20.1658L10.6918 21.2038C12.3437 23.5074 14.9751 25 17.9387 25C22.9431 25 27 20.7467 27 15.5C27 10.2533 22.9431 6 17.9387 6Z" />
</svg>
