<!-- Generated by IcoMoon.io -->
<svg version="1.1" xmlns="http://www.w3.org/2000/svg" width="32" height="32" viewBox="0 0 32 32">
<title>icon-catSummary1</title>
<path d="M-0.25-0.25h32.5v32.5h-32.5v-32.5z"></path>
<path d="M16.302 6.859c0.292 0 0.551 0.187 0.643 0.464l1.913 5.757 6.245-0.013c0.296-0.001 0.557 0.191 0.647 0.472s-0.014 0.589-0.256 0.759l-5.043 3.54 1.933 5.733c0.094 0.278-0.002 0.584-0.237 0.76s-0.556 0.179-0.796 0.009l-5.049-3.576-5.049 3.576c-0.239 0.169-0.56 0.166-0.796-0.009s-0.331-0.482-0.237-0.76l1.933-5.733-5.043-3.54c-0.242-0.17-0.346-0.477-0.256-0.759s0.351-0.473 0.647-0.472l6.245 0.013 1.913-5.757c0.092-0.277 0.351-0.464 0.643-0.464zM16.302 9.684l-1.425 4.287c-0.092 0.277-0.352 0.464-0.644 0.464l-4.584-0.010 3.697 2.595c0.246 0.172 0.348 0.486 0.253 0.77l-1.43 4.241 3.742-2.651c0.234-0.166 0.548-0.166 0.783 0l3.742 2.651-1.43-4.241c-0.096-0.284 0.007-0.598 0.253-0.77l3.697-2.595-4.584 0.010c-0.292 0.001-0.552-0.186-0.644-0.464l-1.425-4.287z"></path>
</svg>
