<svg width="32" height="32" viewBox="0 0 32 32" xmlns="http://www.w3.org/2000/svg">
<path fill-rule="evenodd" clip-rule="evenodd" d="M16 3C16.4 3 16.7551 3.26526 16.8812 3.65834L19.5045 11.8334L28.0694 11.8146C28.4748 11.8137 28.8339 12.0853 28.9565 12.4855C29.079 12.8857 28.9367 13.3219 28.6049 13.5631L21.6889 18.5901L24.3404 26.7312C24.4689 27.1258 24.3375 27.5612 24.0149 27.8098C23.6924 28.0584 23.2519 28.0638 22.9237 27.8231L16 22.744L9.07625 27.8231C8.74811 28.0638 8.30764 28.0584 7.98505 27.8098C7.66247 27.5612 7.5311 27.1258 7.65961 26.7312L10.3111 18.5901L3.39515 13.5631C3.06331 13.3219 2.92095 12.8857 3.0435 12.4855C3.16605 12.0853 3.52517 11.8137 3.9306 11.8146L12.4955 11.8334L15.1188 3.65834C15.2449 3.26526 15.6 3 16 3ZM16 7.01086L14.0462 13.0996C13.9198 13.4934 13.5638 13.7588 13.163 13.758L6.87666 13.7442L11.9464 17.4291C12.2833 17.674 12.4243 18.1194 12.2928 18.5234L10.3313 24.5456L15.4632 20.781C15.7848 20.5451 16.2152 20.5451 16.5368 20.781L21.6687 24.5456L19.7072 18.5234C19.5757 18.1194 19.7167 17.674 20.0536 17.4291L25.1233 13.7442L18.837 13.758C18.4362 13.7588 18.0802 13.4934 17.9538 13.0996L16 7.01086Z" />
</svg>
