<svg width="32" height="32" viewBox="0 0 32 32" xmlns="http://www.w3.org/2000/svg">
<path fill-rule="evenodd" strokeWidth="0.5" clip-rule="evenodd" d="M16 5C16.3385 5 16.6389 5.22282 16.7456 5.553L18.9653 12.4201L26.2126 12.4043C26.5556 12.4035 26.8595 12.6317 26.9632 12.9678C27.0669 13.304 26.9464 13.6704 26.6656 13.873L20.8137 18.0957L23.0573 24.9342C23.166 25.2656 23.0548 25.6314 22.7819 25.8402C22.5089 26.0491 22.1362 26.0536 21.8586 25.8514L16 21.585L10.1414 25.8514C9.86379 26.0536 9.49108 26.0491 9.21812 25.8402C8.94517 25.6314 8.83401 25.2656 8.94275 24.9342L11.1863 18.0957L5.33436 13.873C5.05357 13.6704 4.93311 13.304 5.03681 12.9678C5.14051 12.6317 5.44438 12.4035 5.78743 12.4043L13.0347 12.4201L15.2544 5.553C15.3611 5.22282 15.6615 5 16 5ZM16 8.36912L14.3468 13.4837C14.2399 13.8145 13.9386 14.0374 13.5995 14.0367L8.28025 14.0251L12.57 17.1204C12.8551 17.3262 12.9744 17.7003 12.8631 18.0397L11.2034 23.0983L15.5458 19.9361C15.8179 19.7379 16.1821 19.7379 16.4542 19.9361L20.7966 23.0983L19.1369 18.0397C19.0256 17.7003 19.1449 17.3262 19.43 17.1204L23.7198 14.0251L18.4005 14.0367C18.0614 14.0374 17.7601 13.8145 17.6532 13.4837L16 8.36912Z" />
</svg>
