<svg width="32" height="32" viewBox="0 0 32 32" xmlns="http://www.w3.org/2000/svg">
<path fill-rule="evenodd" clip-rule="evenodd" d="M16.7333 5V8.66667H15.2667V5H16.7333ZM10.8667 16C10.8667 13.1649 13.1649 10.8667 16 10.8667C18.8351 10.8667 21.1333 13.1649 21.1333 16C21.1333 18.8351 18.8351 21.1333 16 21.1333C13.1649 21.1333 10.8667 18.8351 10.8667 16ZM16 12.3333C13.975 12.3333 12.3333 13.975 12.3333 16C12.3333 18.025 13.975 19.6667 16 19.6667C18.025 19.6667 19.6667 18.025 19.6667 16C19.6667 13.975 18.025 12.3333 16 12.3333ZM16.7333 27V23.3333H15.2667V27H16.7333ZM27 16.7333H23.3333V15.2667H27V16.7333ZM5 16.7333H8.66667V15.2667H5V16.7333ZM24.0818 8.95521L21.4891 11.5479L20.452 10.5108L23.0447 7.91812L24.0818 8.95521ZM8.95511 24.0819L11.5478 21.4892L10.5107 20.4521L7.91802 23.0448L8.95511 24.0819ZM8.95538 7.918L11.5481 10.5107L10.511 11.5478L7.91829 8.95509L8.95538 7.918ZM24.0821 23.0448L21.4894 20.4521L20.4523 21.4892L23.045 24.0819L24.0821 23.0448Z" />
</svg>
