<svg width="32" height="32" viewBox="0 0 32 32" xmlns="http://www.w3.org/2000/svg">
<path fill-rule="evenodd" clip-rule="evenodd" d="M16.8667 3V7.33333H15.1333V3H16.8667ZM9.93333 16C9.93333 12.6495 12.6495 9.93333 16 9.93333C19.3505 9.93333 22.0667 12.6495 22.0667 16C22.0667 19.3505 19.3505 22.0667 16 22.0667C12.6495 22.0667 9.93333 19.3505 9.93333 16ZM16 11.6667C13.6068 11.6667 11.6667 13.6068 11.6667 16C11.6667 18.3932 13.6068 20.3333 16 20.3333C18.3932 20.3333 20.3333 18.3932 20.3333 16C20.3333 13.6068 18.3932 11.6667 16 11.6667ZM16.8667 29V24.6667H15.1333V29H16.8667ZM29 16.8667H24.6667V15.1333H29V16.8667ZM3 16.8667H7.33333V15.1333H3V16.8667ZM25.5512 7.67433L22.4871 10.7385L21.2615 9.51281L24.3256 6.44868L25.5512 7.67433ZM7.67422 25.5514L10.7383 22.4872L9.5127 21.2616L6.44857 24.3257L7.67422 25.5514ZM7.67455 6.44855L10.7387 9.51268L9.51302 10.7383L6.44889 7.6742L7.67455 6.44855ZM25.5516 24.3257L22.4874 21.2615L21.2618 22.4872L24.3259 25.5513L25.5516 24.3257Z" />
</svg>
