<svg width="32" height="32" viewBox="0 0 32 32" xmlns="http://www.w3.org/2000/svg">
<path fill-rule="evenodd" clip-rule="evenodd" d="M16.766 4.33474C16.343 3.88842 15.657 3.88842 15.234 4.33474L8.33968 11.6078C7.91661 12.0541 7.91661 12.7778 8.33968 13.2241C8.76275 13.6704 9.44867 13.6704 9.87174 13.2241L14.9167 7.90196L14.9167 21.1429V22.2857H17.0833V21.1429L17.0833 7.90196L22.1283 13.2241C22.5513 13.6704 23.2373 13.6704 23.6603 13.2241C24.0834 12.7778 24.0834 12.0541 23.6603 11.6078L16.766 4.33474ZM5.16667 20V18.8571H3V20V23.4286C3 25.9533 4.9401 28 7.33333 28H24.6667C27.0599 28 29 25.9533 29 23.4286V20V18.8571H26.8333V20V23.4286C26.8333 24.6909 25.8633 25.7143 24.6667 25.7143H7.33333C6.13672 25.7143 5.16667 24.6909 5.16667 23.4286V20Z"/>
</svg>
