<svg width="32" height="32" viewBox="0 0 32 32" fill="none" xmlns="http://www.w3.org/2000/svg">
<path fill-rule="evenodd" clip-rule="evenodd" d="M16.6482 6.27895C16.2902 5.90702 15.7098 5.90702 15.3518 6.27895L9.51819 12.3399C9.16021 12.7118 9.16021 13.3148 9.51819 13.6867C9.87617 14.0587 10.4566 14.0587 10.8146 13.6867L15.0833 9.25163L15.0833 20.2857V21.2381H16.9167V20.2857L16.9167 9.25163L21.1855 13.6867C21.5434 14.0587 22.1238 14.0587 22.4818 13.6867C22.8398 13.3148 22.8398 12.7118 22.4818 12.3399L16.6482 6.27895ZM6.83333 19.3333V18.381H5V19.3333V22.1905C5 24.2944 6.64162 26 8.66667 26H23.3333C25.3584 26 27 24.2944 27 22.1905V19.3333V18.381H25.1667V19.3333V22.1905C25.1667 23.2424 24.3459 24.0952 23.3333 24.0952H8.66667C7.65414 24.0952 6.83333 23.2424 6.83333 22.1905V19.3333Z" fill="white"/>
</svg>
