<!-- Generated by IcoMoon.io -->
<svg version="1.1" xmlns="http://www.w3.org/2000/svg" width="512" height="512" viewBox="0 0 512 512">
<title></title>
<g id="icomoon-ignore">
</g>
<path d="M264.004 383.997c-0.576 0-1.156-0.064-1.736-0.192-3.664-0.816-6.268-4.060-6.268-7.812v-119.996h-119.996c-3.752 0-7-2.608-7.812-6.268s1.032-7.396 4.428-8.984l239.993-111.996c3.052-1.424 6.664-0.788 9.040 1.596s3.016 5.992 1.596 9.040l-111.997 239.993c-1.336 2.86-4.196 4.62-7.248 4.62zM172.064 240h91.936c4.42 0 8 3.584 8 8v91.936l87.444-187.384-187.384 87.444z"></path>
</svg>
