<?xml version="1.0" encoding="UTF-8"?><svg id="b" xmlns="http://www.w3.org/2000/svg" viewBox="0 0 318.88 92.2"><g id="c"><g><g id="d"><g><path d="M281.27,12.96c-.26,1.53-.37,5.28,1.83,4.8,2.93-.63,2.54-.93,4.15-2.33,1.07-.94,3.69,1.62,.04,5.69-1.99,2.23-2.43,2.91-1.36,4.2,1.11,1.34,4,1.85,4,5.97,0,3.62,4.64,1,5.77-.42,1.1-1.38,1.91-7.67,5.04-3.09,2.22,3.26-1.57,10.23,2.99,10.92,3.75,.56,4.4,4.84,4.51,5.92,.01,.15,.02,.25,.02,.25,9.58-9.2,3.2-21.11,2.96-22.55-.41-2.58,.98-1.64,2.69-.05-7.06-13.25-21.01-22.27-37.06-22.27-2.77,0-5.48,.28-8.1,.79,8.27,.17,14.05,3.48,12.53,12.17Z" fill="#fff"/><path d="M303.29,63.57c-2.58,1.03-3.69-.62-5.61,1.25-2.1,2.05,4.62,6.08-7.75,3.26-5.53-1.26-4.77,4.75-10.98,1.59-1.72-4.09-1.77-6.5-.3-9.06,1.71-3,2.33-1.99,1.29-5.29-.41-1.29-.01-1.86,.67-3.66,.68-1.79-.19-4.28-2.72-4.14-3.36,.19-2.97,1.71-5.05,3.11-1.39,.93-3.74-3.8,1.18-8.06,2.69-2.32,3.32-3.07,2.44-4.86-.92-1.86-2.63-1.19-3.31-3.33-.53-1.64,.29-4.73-2.07-5.47-2.68-.84-4.82,2.99-6.37,4.5-1.8,1.75-3.77,4.87-4.74,2.38-1.72-4.43,6.19-11.04,1.31-12.79-4.59-1.65-6.09-6.47-6.09-6.47-12.6,9.35-6.63,17.57-7.68,19.02-1.05,1.46-3.07-1.77-4.77-.23-1.31,1.19-2.48,8.83,5.59,13.68,3.06,1.84,4.06,2.31,3.33,3.42-.59,.88-3.03,.14-3,2.16,.08,4.05,6.58,2.83,7.76,7.91,1.11,4.74,21.26,7.57,21.26,7.57-.02-.02,.09,0,.25,.06l.96,.53c.3,1.25,1.5,4.11,4.3,5.55,4.64,2.39-.28,1.24,.35,2.92,.32,.86,3.61,3.08,9.46,1.73,8.09-3.38,14.89-9.21,19.48-16.57-5-3.91-5.38-3.1-9.18-.71Z" fill="#fff"/><path d="M277.92,70.12c-.16-.05-.28-.08-.25-.06,0,0-20.15-2.83-21.26-7.57-1.18-5.07-7.68-3.86-7.76-7.91-.04-2.02,2.41-1.28,3-2.16,.73-1.11-.27-1.58-3.33-3.42-8.07-4.85-6.9-12.49-5.59-13.68,1.7-1.54,3.72,1.68,4.77,.23,1.05-1.46-4.92-9.68,7.68-19.02,0,0,1.49,4.82,6.09,6.47,4.87,1.75-3.03,8.36-1.31,12.79,.97,2.49,2.94-.63,4.74-2.38,1.55-1.5,3.68-5.33,6.37-4.5,2.36,.74,1.54,3.83,2.07,5.47,.69,2.14,2.39,1.47,3.31,3.33,.89,1.79,.26,2.54-2.44,4.86-4.92,4.26-2.57,8.99-1.18,8.06,2.07-1.39,1.68-2.92,5.05-3.11,2.53-.14,3.4,2.35,2.72,4.14-.68,1.79-1.08,2.37-.67,3.66,1.04,3.3,.43,2.29-1.29,5.29-1.47,2.56-1.41,4.97,.3,9.06,6.2,3.15,5.45-2.85,10.98-1.59,12.37,2.82,5.65-1.21,7.75-3.26,1.91-1.87,3.03-.22,5.61-1.25,3.82-2.39,4.18-3.21,9.21,.73,4.04-6.46,6.39-14.09,6.39-22.26,0-7.11-1.78-13.81-4.9-19.69-1.75-1.63-3.2-2.65-2.78-.02,.24,1.45,6.62,13.35-2.96,22.55,0,0,0-.1-.02-.25-.11-1.09-.76-5.36-4.51-5.92-4.56-.68-.77-7.66-2.99-10.92-3.13-4.58-3.94,1.71-5.04,3.09-1.12,1.41-5.77,4.03-5.77,.42,0-4.12-2.89-4.63-4-5.97-1.07-1.29-.63-1.97,1.36-4.2,3.65-4.07,1.02-6.63-.04-5.69-1.6,1.4-1.22,1.7-4.15,2.33-2.19,.48-2.09-3.27-1.83-4.8,1.51-8.7-4.27-12-12.56-12.17-19.33,3.79-33.91,20.81-33.91,41.25,0,23.22,18.82,42.04,42.04,42.04,5.73,0,11.19-1.15,16.17-3.23-5.86,1.36-9.16-.87-9.48-1.72-.63-1.68,4.29-.53-.35-2.92-2.8-1.44-4-4.3-4.3-5.55l-.96-.53Z" fill="#49a942"/><path d="M280.29,71.4s-27.63-10.73-28.59-37.92c0,0,2.67,20.67,28.59,37.92Z" fill="#49a942"/><path d="M280.08,.06c.79,.09,6.74,.88,13.02,4.89,2.34,2.19,5.64,7.56,.54,18.56,0,0,6.54-8.83,4.89-14.19,5.49,5.5,10.1,14.23,10.27,28.06,0,0,6.1-34.64-28.73-37.32Z" fill="#49a942"/><path d="M307.71,68.78c-2.11,1.28-5.53,4.29-11.12,2.53,0,0,2.19,1.68,5.71,1.59-4.49,2.32-9.35,2.87-17.05,.94,0,0,15.59,9.19,26.48-8.4,0,0-2.7,2.54-4.01,3.33Z" fill="#49a942"/></g><g><path d="M13.4,31.65c0,3.03,.58,3.87,2.73,3.87v.75H7.2v-.75c1.8,0,2.86-.53,2.86-4V12.31h-3.65c-3.38,0-4.92,.96-5.14,3.6H.52v-5.76h.75c.35,.31,.75,.52,1.37,.7,.57,.14,1.36,.22,2.42,.22h13.19c2.2,0,3.21-.26,4-.92h.79v5.76h-.48c-.49-2.11-1.32-3.6-5.32-3.6h-3.83V31.65Z" fill="#231f20"/><path d="M40.58,32.53c0,2.38,.44,2.99,2.5,2.99v.75h-8.09v-.75c2.12,0,2.6-.49,2.6-2.51v-7.69c0-2.07-1.23-3.39-3.12-3.39-1.76,0-3.04,.83-4.53,2.95v8.53c0,1.62,.66,2.11,2.59,2.11v.75h-8.35v-.75c2.33-.05,2.77-.49,2.77-2.99V12.26c0-2.02-.58-2.33-2.77-2.33v-.75l5.01-.53h.75v14.73c1.98-2.29,3.43-3.12,5.45-3.12,2.6,0,5.19,1.71,5.19,5.4v6.86Z" fill="#231f20"/><path d="M47.86,26.77c-.08,6.99,4.09,8.75,6.2,8.75s3.25-.75,5.5-3.25v1.15c-1.89,2.42-3.7,3.33-6.42,3.33-4.88,0-8.4-3.38-8.4-8.09s3.43-8.39,7.83-8.39c3.61,0,6.95,2.9,6.73,6.51h-11.44Zm8.49-.75c.13-3.43-2.2-4.84-4.18-4.84-2.59,0-4.13,1.93-4.31,4.84h8.49Z" fill="#231f20"/><path d="M99.73,45.72h-1.19L70.39,11.01h-.14v28.02c0,4.04,1.6,5.51,5.23,5.51v1.19h-12.13v-1.19c3.34,0,4.94-1.04,4.94-6.83V14.36c0-4.46-1.19-6.97-5.92-7.39v-1.18h10.24l24.96,31.08h.14V13.52c0-5.23-1.39-6.55-4.88-6.55v-1.18h12.06v1.18c-3.9,0-5.16,1.6-5.16,6.27V45.72Z" fill="#231f20"/><path d="M136.58,20.98h8.57v1.81h-8.57v15.89c0,3.41,1.74,5.16,4.46,5.16,1.81,0,3.14-.7,4.6-2.37l.77,.91c-2.16,2.72-4.67,4.11-7.46,4.11-4.18,0-7.11-2.93-7.11-7.18V22.79h-4.67v-1.18c3.34-1.67,6.13-4.67,8.22-8.92h1.18v8.3Z" fill="#231f20"/><path d="M173.25,41.05c0,2.72,.91,3.49,4.25,3.49v1.19l-8.99,.49v-4.53h-.14c-2.44,3.21-5.3,4.81-8.64,4.81-4.88,0-8.08-3.69-8.08-8.29v-12.62c0-2.37-.84-3.28-4.39-3.28v-1.19l7.95-.77h1.19v17.63c0,3.49,2.23,5.58,5.58,5.58,2.37,0,4.53-1.32,6.55-4.04v-13.31c0-3.42-.56-3.83-4.81-3.9v-1.19l8.36-.77h1.19v20.7Z" fill="#231f20"/><path d="M188.57,41.05c0,2.72,.83,3.49,4.11,3.49v1.19h-13.03v-1.19c3.77,0,4.18-.98,4.18-4.74v-13.45c0-3.62-.91-4.04-5.09-4.04v-1.19l8.64-.77h1.19v5.37c4.6-3.97,6.76-5.37,8.43-5.37,1.39,0,3.28,.84,4.53,1.95l-1.88,4.39c-2.02-1.11-4.18-2.16-5.85-2.16s-3,.84-5.23,3v13.52Z" fill="#231f20"/><path d="M206.87,30.67c-.14,11.08,6.48,13.87,9.83,13.87s5.15-1.19,8.71-5.16v1.81c-3,3.83-5.86,5.29-10.18,5.29-7.74,0-13.31-5.36-13.31-12.82s5.44-13.31,12.41-13.31c5.71,0,11.01,4.6,10.66,10.32h-18.12Zm13.45-1.19c.21-5.44-3.49-7.67-6.62-7.67-4.11,0-6.55,3.07-6.83,7.67h13.45Z" fill="#231f20"/><path d="M25.36,55.52c-1.46-5.63-4.54-8.09-9.7-8.09-7.2,0-11.07,5.79-11.07,13.47,0,8.97,4.65,14.87,11.38,14.87,4.7,0,8.2-2.19,10.44-6.57l.78,.73c-1.98,4.75-6.73,7.72-12.47,7.72-7.2,0-14.72-4.91-14.72-14.87s6.52-16.49,15.45-16.49c3.76,0,6.58,1.25,8.35,1.25,.79,0,1.3-.32,1.62-.94h.84v8.92h-.89Z" fill="#231f20"/><path d="M39.17,77.48c-5.79,0-10.12-4.17-10.12-9.76s4.33-9.81,10.12-9.81,10.12,4.18,10.12,9.81-4.33,9.76-10.12,9.76Zm0-18.52c-3.91,0-6.26,3.44-6.26,8.76,0,4.75,1.98,8.72,6.26,8.72s6.26-4.23,6.26-8.72-1.98-8.76-6.26-8.76Z" fill="#231f20"/><path d="M70.73,72.89c0,2.4,.52,3.13,3.13,3.13v.89h-9.86v-.89c2.5,0,3.18-.57,3.18-2.29v-9.65c0-2.97-2.14-4.22-4.12-4.22-1.83,0-3.44,1.15-5.27,3.6v9.03c0,2.82,.36,3.55,3.13,3.55v.89h-9.76v-.89c2.45,0,3.08-.21,3.08-3.55v-10.38c0-2.24-.57-2.71-3.08-2.71v-.89l5.74-.58h.89v3.7c2.19-2.5,4.33-3.7,6.68-3.7,3.08,0,6.26,2.19,6.26,6.63v8.35Z" fill="#231f20"/><path d="M86.01,63.6c-.36-3.08-2.4-4.64-4.59-4.64-1.83,0-3.08,.99-3.08,2.5,0,4.7,9.7,3.44,9.7,10.33,0,3.08-2.66,5.69-5.84,5.69-2.04,0-3.81-1.36-4.7-1.36-.68,0-1.15,.58-1.2,1.25h-.89v-6.31h.89c.79,3.86,3.66,5.38,5.95,5.38,1.83,0,3.24-1.36,3.24-3.19,0-5.16-9.81-3.76-9.81-10.02,0-2.87,2.56-5.32,5.63-5.32,1.93,0,2.51,.89,3.76,.89,.47,0,.83-.26,1.09-.89h.89v5.69h-1.04Z" fill="#231f20"/><path d="M93.71,65.64c-.1,8.3,4.85,10.38,7.36,10.38s3.86-.89,6.52-3.86v1.35c-2.25,2.87-4.38,3.97-7.62,3.97-5.79,0-9.97-4.02-9.97-9.6s4.07-9.96,9.29-9.96c4.28,0,8.25,3.45,7.99,7.72h-13.57Zm10.07-.89c.15-4.07-2.61-5.73-4.96-5.73-3.08,0-4.9,2.29-5.12,5.73h10.07Z" fill="#231f20"/><path d="M116.48,73.41c0,2.03,.62,2.61,3.08,2.61v.89h-9.76v-.89c2.82,0,3.13-.73,3.13-3.55v-10.07c0-2.71-.68-3.02-3.81-3.02v-.89l6.47-.58h.89v4.02c3.44-2.97,5.06-4.02,6.31-4.02,1.04,0,2.45,.63,3.39,1.46l-1.41,3.28c-1.51-.83-3.13-1.61-4.38-1.61s-2.24,.62-3.91,2.24v10.13Z" fill="#231f20"/><path d="M138.49,72.42l3.6-9.34c.89-2.4,.89-3.49-1.83-3.7v-.89h6.78v.89c-2.14,.21-2.66,.68-3.55,2.66l-5.95,15.29h-.88l-5.9-14.51c-1.25-3.02-1.72-3.34-3.91-3.44v-.89h8.92v.89c-1.78,.16-2.24,1.15-1.41,3.18l4.12,9.86Z" fill="#231f20"/><path d="M183.88,72.89c0,2.4,.52,3.13,3.13,3.13v.89h-9.86v-.89c2.51,0,3.18-.57,3.18-2.29v-9.65c0-2.97-2.14-4.22-4.12-4.22-1.83,0-3.44,1.15-5.27,3.6v9.03c0,2.82,.37,3.55,3.13,3.55v.89h-9.76v-.89c2.45,0,3.08-.21,3.08-3.55v-10.38c0-2.24-.58-2.71-3.08-2.71v-.89l5.74-.58h.89v3.7c2.19-2.5,4.33-3.7,6.68-3.7,3.08,0,6.26,2.19,6.26,6.63v8.35Z" fill="#231f20"/><path d="M204.42,64.44h-.89c-.79-3.33-3.13-5.48-6.21-5.48-3.65,0-6.21,3.13-6.21,7.67,0,5.06,3.18,9.29,6.94,9.29,2.25,0,4.96-1.2,6.89-3.86v1.36c-1.98,2.71-4.8,4.07-8.14,4.07-5.48,0-9.29-3.81-9.29-9.34s4.28-10.23,9.55-10.23c2.77,0,4.28,1.04,5.22,1.04,.47,0,.94-.36,1.25-1.04h.89v6.52Z" fill="#231f20"/><path d="M217.67,72.63l3.24-9.76c.73-2.19,.57-3.39-1.46-3.49v-.89h6.52v.89c-1.98,0-3.18,1.25-4.23,4.33l-7.36,21.76c-1.46,4.28-3.86,6.73-6.11,6.73-.78,0-1.35-.21-2.29-.78l1.2-3.18c.73,.31,1.14,.42,1.77,.42,2.24,0,3.55-1.3,4.7-4.54l2.4-6.68-6.63-15.29c-.94-2.14-1.62-2.71-3.76-2.76v-.89h8.87v.89c-1.41,.21-1.98,1.25-1.3,2.82l4.43,10.43Z" fill="#231f20"/><path d="M123.78,40.35v-10.93c0-6.69-4.8-9.06-8.91-9.06-4.46,0-8.08,3-9.13,7.6l1.26,.35c1.05-3.56,3.76-5.3,6.55-5.3,3.48,0,5.51,2.51,5.51,5.99v1.81c-4.04,2.37-13.66,2.09-13.66,9.13,0,3.62,3.21,6.55,7.04,6.55,2.58,0,4.47-1.02,6.92-3.67h.01s0,2.96,0,2.96h8.66v-1.2c-3.53,0-4.24-.99-4.24-4.23Zm-4.73,.36c-.98,2.09-3.62,3.14-5.09,3.14-2.02,0-3.77-2.02-3.77-4.53,0-5.02,4.18-4.94,8.85-6.97v8.36Z" fill="#231f20"/><path d="M160.5,72.86v-8.11c0-4.96-3.56-6.72-6.61-6.72-3.31,0-5.99,2.22-6.77,5.63l.93,.26c.77-2.64,2.79-3.93,4.85-3.93,2.58,0,4.08,1.86,4.08,4.45v1.34c-3,1.76-10.13,1.55-10.13,6.77,0,2.69,2.38,4.85,5.22,4.85,1.91,0,3.32-.76,5.13-2.72h0s0,2.19,0,2.19h6.42v-.89c-2.61,0-3.14-.73-3.14-3.14Zm-3.5,.27c-.72,1.55-2.69,2.33-3.77,2.33-1.5,0-2.79-1.5-2.79-3.36,0-3.72,3.1-3.67,6.56-5.17v6.2Z" fill="#231f20"/></g></g><path d="M314.73,8.43c-2.41,0-4.07-1.67-4.07-4.18S312.35,.06,314.75,.06s4.07,1.69,4.07,4.2-1.71,4.18-4.09,4.18Zm.02-7.89c-1.96,0-3.51,1.33-3.51,3.71s1.57,3.69,3.49,3.69,3.51-1.33,3.51-3.69-1.57-3.71-3.49-3.71Zm.97,5.87l-1.17-1.76h-.34v1.76h-1.03V1.79h1.58c1.06,0,1.71,.5,1.71,1.4,0,.67-.36,1.08-.88,1.28l1.33,1.94h-1.21Zm-1.03-3.8h-.49v1.31h.47c.49,0,.77-.22,.77-.67,0-.41-.27-.65-.76-.65Z" fill="#231f20"/></g></g></svg>