<svg width="23" height="22" viewBox="0 0 23 22" xmlns="http://www.w3.org/2000/svg">
<path fill-rule="evenodd" clip-rule="evenodd" d="M1.06238 10.8519C0.0149926 8.85849 0.698091 7.20229 2.32494 6.68647C2.44364 7.65325 2.74422 8.70294 3.1512 9.72424C3.99511 11.8419 5.33198 13.9233 6.57463 14.9406C6.74036 15.0763 6.98668 15.0543 7.12479 14.8915C7.2629 14.7287 7.2405 14.4867 7.07477 14.351C5.97362 13.4495 4.69831 11.5012 3.87869 9.44442C3.47141 8.42239 3.18555 7.39502 3.08759 6.48178C2.98874 5.56021 3.08621 4.80231 3.39046 4.27838C3.99014 3.24572 4.75497 2.78161 5.48605 2.59434C6.22626 2.40474 6.96206 2.49209 7.49992 2.62255C7.13958 3.93691 7.10707 5.57134 7.40399 7.41417C7.79221 9.82366 8.1664 11.3747 8.44625 12.3287C8.58622 12.8059 8.70283 13.1346 8.78616 13.3473C8.82784 13.4536 8.86125 13.5311 8.88517 13.5838C8.89713 13.6101 8.90672 13.6302 8.9138 13.6447L8.92251 13.6621L8.92542 13.6678L8.92651 13.6699L8.92734 13.6715C9.02682 13.8596 9.26265 13.9328 9.45408 13.8351C9.6454 13.7374 9.72013 13.5062 9.62091 13.3182L9.61777 13.3118C9.61404 13.3042 9.6076 13.2908 9.59859 13.2709C9.58057 13.2313 9.55235 13.1662 9.51525 13.0715C9.44102 12.8821 9.33144 12.5747 9.19695 12.1162C8.92787 11.1988 8.55998 9.67966 8.17563 7.29417C7.81096 5.03085 7.98091 3.1985 8.57284 1.9517C9.1519 0.731996 10.134 0.0625 11.5 0.0625C12.866 0.0625 13.8481 0.731996 14.4272 1.9517C15.0191 3.1985 15.189 5.03085 14.8244 7.29417C14.44 9.67966 14.0721 11.1988 13.803 12.1162C13.6686 12.5747 13.559 12.8821 13.4847 13.0715C13.4476 13.1662 13.4194 13.2313 13.4014 13.2709C13.3924 13.2908 13.386 13.3042 13.3822 13.3118L13.3791 13.3182C13.2799 13.5062 13.3546 13.7374 13.5459 13.8351C13.7374 13.9328 13.9732 13.8596 14.0727 13.6715L14.0735 13.6699L14.0746 13.6678L14.0775 13.6621L14.0862 13.6447C14.0933 13.6302 14.1029 13.6101 14.1148 13.5838C14.1387 13.5311 14.1722 13.4536 14.2138 13.3473C14.2972 13.1346 14.4138 12.8059 14.5538 12.3287C14.8336 11.3747 15.2078 9.82366 15.596 7.41417C15.8929 5.57134 15.8604 3.93691 15.5001 2.62255C16.0379 2.49209 16.7737 2.40474 17.5139 2.59434C18.245 2.78161 19.0099 3.24572 19.6095 4.27838C19.9138 4.80231 20.0113 5.56021 19.9124 6.48178C19.8145 7.39502 19.5286 8.42239 19.1213 9.44442C18.3017 11.5012 17.0264 13.4495 15.9252 14.351C15.7595 14.4867 15.7371 14.7287 15.8752 14.8915C16.0133 15.0543 16.2596 15.0763 16.4254 14.9406C17.668 13.9233 19.0049 11.8419 19.8488 9.72424C20.2558 8.70294 20.5564 7.65325 20.6751 6.68647C22.3019 7.20229 22.985 8.85849 21.9376 10.8519C21.1914 12.272 19.5063 15.057 17.0668 17.0152C17.0919 17.0342 17.1171 17.0534 17.1424 17.0729C19.9434 19.2332 18.0244 22.8024 15.6378 21.7462C14.0615 21.0487 12.6285 20.8965 11.8762 20.8965H11.5H11.1238C10.3715 20.8965 8.93849 21.0487 7.36223 21.7462C4.97556 22.8024 3.05661 19.2332 5.85759 17.0729C5.88286 17.0534 5.90806 17.0342 5.93319 17.0152C3.49373 15.057 1.80855 12.272 1.06238 10.8519Z" />
</svg>
