<svg width="24" height="21" viewBox="0 0 24 21" xmlns="http://www.w3.org/2000/svg">
<path d="M7.58447 0.234375C4.23135 0.234375 3.2876 1.40625 3.2876 1.40625L2.50635 1.01562C2.50635 1.01562 0.943848 2.57812 0.943848 4.92188C0.943848 9.60938 4.97751 11.3321 4.97751 11.3321L6.1059 8.98071C5.11605 8.17603 5.11026 7.39456 5.11026 7.39456C5.11026 7.39456 7.00275 6.58691 7.55548 5.62988C8.10822 4.67285 8.36572 4.05156 8.36572 2.57812L5.11026 3.58902L7.58447 0.234375ZM16.9595 0.234375L19.4337 3.58902L16.1782 2.57812C16.1782 4.05156 16.4357 4.67285 16.9885 5.62988C17.5412 6.58691 19.4337 7.39456 19.4337 7.39456C19.4337 7.39456 19.4279 8.17603 18.438 8.98071L19.5664 11.3321C19.5664 11.3321 23.6001 9.60938 23.6001 4.92188C23.6001 2.57812 22.0376 1.01562 22.0376 1.01562L21.2563 1.40625C21.2563 1.40625 20.3126 0.234375 16.9595 0.234375ZM9.14697 8.04688C9.04266 8.04684 8.93941 8.06693 8.84329 8.10597C8.74717 8.145 8.66013 8.20218 8.58732 8.27415C8.5145 8.34611 8.45738 8.43139 8.41932 8.52496C8.38127 8.61853 8.36304 8.7185 8.36572 8.81897C6.38511 10.0607 4.8501 13.125 4.8501 13.125H3.26318C3.03115 13.125 2.81119 13.2284 2.66275 13.4065L0.943848 15.4688C0.943848 17.0312 2.11572 18.5938 2.11572 18.5938L2.50635 15.8594L4.06885 14.6875L6.33707 15.2544L6.76431 15.867L4.8501 16.25L4.06885 17.8125C4.06885 18.9844 5.24072 20.9375 5.24072 20.9375L5.63135 17.8125L7.78741 17.3334L7.90262 17.4982C8.19168 17.938 8.6826 18.2031 9.20877 18.2031H15.3352C15.8613 18.2031 16.3523 17.938 16.6413 17.4982L16.7565 17.3334L18.9126 17.8125L19.3032 20.9375C19.3032 20.9375 20.4751 18.9844 20.4751 17.8125L19.6938 16.25L17.7796 15.867L18.2069 15.2544L20.4751 14.6875L22.0376 15.8594L22.4282 18.5938C22.4282 18.5938 23.6001 17.0312 23.6001 15.4688L21.8812 13.4065C21.7328 13.2284 21.5128 13.125 21.2808 13.125H19.6938C19.6938 13.125 18.158 10.0593 16.1767 8.81821C16.1793 8.71793 16.161 8.61816 16.123 8.52478C16.085 8.43139 16.028 8.34626 15.9553 8.27441C15.8827 8.20255 15.7959 8.1454 15.7 8.10633C15.6041 8.06725 15.5011 8.04704 15.397 8.04688C15.2937 8.04697 15.1914 8.06679 15.0961 8.10521C15.0009 8.14362 14.9144 8.19986 14.8418 8.27067C14.7692 8.34148 14.712 8.42545 14.6733 8.51773C14.6346 8.61002 14.6153 8.70877 14.6165 8.80829C14.0783 9.01015 13.2825 9.21875 12.272 9.21875C11.2615 9.21875 10.4656 9.01015 9.92746 8.80829C9.92865 8.70877 9.90935 8.61002 9.87067 8.51773C9.83199 8.42545 9.7747 8.34148 9.70212 8.27067C9.62953 8.19986 9.54309 8.14362 9.4478 8.10521C9.35252 8.06679 9.25027 8.04697 9.14697 8.04688Z" />
</svg>
