<svg width="24" height="16" viewBox="0 0 24 16" xmlns="http://www.w3.org/2000/svg">
<path d="M23.6164 8.31211C23.4864 8.16211 20.6714 4.89211 15.8914 4.30711C14.8364 3.17711 14.0864 0.777109 11.6014 0.537109C11.3164 2.62711 9.64644 4.00211 9.23144 4.77711C9.38144 4.97211 9.69644 5.22211 9.95144 5.41711C9.25144 5.70711 8.55644 6.01211 7.91144 6.29711C6.74644 6.81711 5.54144 7.34711 5.16144 7.34711C4.71644 7.34711 4.27644 6.97711 3.72144 6.50711C3.13644 6.00711 2.41144 5.39211 1.40144 5.02211C1.22644 4.95711 1.03644 4.99711 0.896442 5.12211C0.761442 5.24211 0.701442 5.43211 0.746442 5.61211L1.50144 8.63711L0.746442 11.6571C0.701442 11.8321 0.756442 12.0171 0.886442 12.1421C0.981442 12.2321 1.10644 12.2771 1.23144 12.2771C1.28144 12.2771 1.33144 12.2721 1.37644 12.2571C2.39144 11.9471 2.98644 11.3571 3.51644 10.8371C4.05144 10.3071 4.44144 9.92211 5.16144 9.92211C5.70644 9.92211 6.50644 10.2421 7.43144 10.6171L6.73144 10.9321C6.73144 10.9321 7.28144 12.4171 7.24144 12.9371C7.19644 13.4521 10.0214 11.7921 10.6314 11.7421C11.6564 12.0171 12.8114 12.2171 14.0914 12.2621L12.7314 13.4871C12.7314 13.4871 13.1464 14.6571 13.2514 15.5371C15.3714 14.9121 15.6714 12.9871 16.0264 12.2271C20.7414 11.9021 23.3914 10.0521 23.7164 8.75711C23.7564 8.60211 23.7164 8.43711 23.6164 8.31211ZM20.9664 9.18711C20.5514 9.18711 20.2214 8.86711 20.2214 8.46711C20.2214 8.06711 20.5514 7.74711 20.9664 7.74711C21.3764 7.74711 21.7114 8.06711 21.7114 8.46711C21.7114 8.86711 21.3764 9.18711 20.9664 9.18711Z" />
</svg>
