<svg width="24" height="24" viewBox="0 0 24 24" xmlns="http://www.w3.org/2000/svg">
<path d="M13.3712 18.5183C12.854 18.6818 12.3139 18.773 11.7665 18.7735L9.7014 18.4761C9.36182 18.4266 9.04359 18.5943 8.89098 18.8995C8.73786 19.2058 8.79515 19.56 9.03734 19.8016L10.4129 21.1771L9.79203 22.7303C9.68473 22.998 9.73317 23.3016 9.91807 23.5225C10.0675 23.7021 10.2868 23.8021 10.5149 23.8021C10.567 23.8021 10.6191 23.7969 10.6712 23.7865C12.6733 23.3777 14.4446 22.8188 15.9915 22.1198L13.3712 18.5183ZM22.779 15.0928C22.7603 15.086 20.8774 14.4016 19.5498 14.3433C19.2623 14.3308 19.0399 14.0876 19.0524 13.8001C19.0649 13.5126 19.316 13.287 19.5957 13.3027C21.0858 13.3688 23.0545 14.085 23.1379 14.1157C23.1806 14.1313 23.2139 14.1594 23.2498 14.1844C23.7233 12.3886 23.629 10.6631 22.9379 9.03443C22.6488 8.35318 22.3462 7.75006 22.0035 7.21516C20.655 6.93912 18.567 7.59849 17.7311 8.03547C17.654 8.07558 17.5712 8.09433 17.4905 8.09433C17.303 8.09433 17.1212 7.99276 17.028 7.81464C16.8952 7.55943 16.9941 7.24485 17.2488 7.11151C17.9561 6.74276 19.6118 6.15474 21.1264 6.1136C19.8181 4.81776 17.8764 4.18756 14.3644 4.18756H6.40505C6.32796 4.18756 6.2514 4.19276 6.1764 4.20214C6.129 4.19328 6.08057 4.18756 6.03109 4.18756C5.37744 4.18756 5.11182 3.94849 4.96911 3.76828C4.39463 3.04485 4.59307 1.47401 4.70817 0.980785C4.80661 0.561514 4.54723 0.141722 4.12796 0.0417225C3.70713 -0.0577567 3.28682 0.202139 3.18734 0.621931C3.13369 0.847972 2.75713 2.58183 3.31963 3.98808C3.03838 3.87662 2.78734 3.73026 2.5738 3.5412C1.63682 2.71099 1.60452 1.35266 1.604 1.31933C1.60192 0.889639 1.25296 0.541722 0.822754 0.541722C0.391504 0.541722 0.0415039 0.891722 0.0415039 1.32297C0.0415039 1.40631 0.0581706 3.38651 1.52275 4.69693C2.31025 5.40214 3.3415 5.7662 4.59255 5.79068C4.54775 6.14901 4.60869 6.51776 4.78317 6.85162C5.90036 8.99016 8.42536 10.1464 10.6712 10.7688C10.5941 10.8183 10.5222 10.8688 10.4597 10.9193C9.44619 11.7469 9.4165 13.1454 9.4165 13.3021C9.4165 13.7334 9.7665 14.0834 10.1978 14.0834C10.629 14.0834 10.979 13.7334 10.979 13.3021C10.979 13.1355 11.0582 12.4475 11.4472 12.1303C11.6889 11.9318 12.0649 11.8813 12.5613 11.9818C12.0009 12.5792 11.8155 13.335 12.0608 14.0704C12.1696 14.3975 12.4748 14.6042 12.8019 14.6042C12.8837 14.6042 12.967 14.5917 13.0493 14.5641C13.4587 14.4277 13.6795 13.9855 13.5431 13.5761C13.5129 13.4855 13.4498 13.2964 13.7212 13.0251C14.2347 12.5115 15.3863 12.2511 16.1353 12.4657C16.4342 12.8527 16.6467 13.311 16.7483 13.8152C16.9545 14.8485 16.6707 15.9417 15.9868 16.7391L15.8821 16.8615C15.4462 17.3704 14.9233 17.7818 14.3519 18.0959L16.9425 21.6584C19.3952 20.3735 21.192 18.6818 22.3019 16.5912C22.5644 16.0969 22.7712 15.6089 22.9514 15.124C22.8936 15.123 22.8358 15.1141 22.779 15.0928ZM9.67692 7.83339C9.24567 7.83339 8.89567 7.48339 8.89567 7.05214C8.89567 6.62089 9.24567 6.27089 9.67692 6.27089C10.1082 6.27089 10.4582 6.62089 10.4582 7.05214C10.4582 7.48339 10.1082 7.83339 9.67692 7.83339Z" />
</svg>
